<?xml version="1.0" encoding="UTF-8" standalone="no"?>
<!-- Created with Inkscape (http://www.inkscape.org/) -->

<svg
   width="520.08258mm"
   height="209.45mm"
   viewBox="0 0 520.08257 209.45"
   version="1.1"
   id="svg1"
   inkscape:version="1.4 (86a8ad7, 2024-10-11)"
   sodipodi:docname="LogoEssenceDuVie.svg"
   xmlns:inkscape="http://www.inkscape.org/namespaces/inkscape"
   xmlns:sodipodi="http://sodipodi.sourceforge.net/DTD/sodipodi-0.dtd"
   xmlns:xlink="http://www.w3.org/1999/xlink"
   xmlns="http://www.w3.org/2000/svg"
   xmlns:svg="http://www.w3.org/2000/svg">
  <sodipodi:namedview
     id="namedview1"
     pagecolor="#505050"
     bordercolor="#ffffff"
     borderopacity="1"
     inkscape:showpageshadow="0"
     inkscape:pageopacity="0"
     inkscape:pagecheckerboard="1"
     inkscape:deskcolor="#505050"
     inkscape:document-units="mm"
     inkscape:zoom="0.38083965"
     inkscape:cx="1133.0228"
     inkscape:cy="681.38914"
     inkscape:window-width="1920"
     inkscape:window-height="1057"
     inkscape:window-x="1919"
     inkscape:window-y="-8"
     inkscape:window-maximized="1"
     inkscape:current-layer="text6" />
  <defs
     id="defs1">
    <rect
       x="829.74554"
       y="15.754662"
       width="1118.581"
       height="435.87898"
       id="rect1" />
    <linearGradient
       inkscape:collect="always"
       xlink:href="#linearGradient6"
       id="linearGradient323"
       x1="12.403576"
       y1="51.663231"
       x2="89.448227"
       y2="51.663231"
       gradientUnits="userSpaceOnUse" />
    <linearGradient
       id="linearGradient6"
       inkscape:collect="always">
      <stop
         style="stop-color:#ecc440;stop-opacity:1;"
         offset="0"
         id="stop6" />
      <stop
         style="stop-color:#ddda8a;stop-opacity:1;"
         offset="0.29652995"
         id="stop10" />
      <stop
         style="stop-color:#ddac17;stop-opacity:1;"
         offset="0.67350155"
         id="stop11" />
      <stop
         style="stop-color:#ffff95;stop-opacity:1;"
         offset="1"
         id="stop7" />
    </linearGradient>
    <linearGradient
       inkscape:collect="always"
       xlink:href="#linearGradient6"
       id="linearGradient1"
       gradientUnits="userSpaceOnUse"
       x1="12.403576"
       y1="51.663231"
       x2="89.448227"
       y2="51.663231" />
  </defs>
  <g
     inkscape:label="Layer 1"
     inkscape:groupmode="layer"
     id="layer1"
     transform="translate(-0.067539,-0.13289493)">
    <g
       id="g312"
       transform="matrix(2.2121694,0,0,2.2256526,-5.0044646,-8.6686254)">
      <g
         id="g1">
        <g
           style="opacity:1;fill:none;fill-opacity:1;stroke:url(#linearGradient323);stroke-width:0.99981;stroke-dasharray:none;stroke-opacity:1"
           id="g311"
           transform="matrix(0.91809988,0,0,0.91809988,4.7238409,14.325342)">
          <path
             d="m 55.7442,87.1039 c 2.4793,0.8927 5.3072,1.2143 8.5053,0.939 0,0 -5.5868,-1.5366 -7.0536,-4.2753 -1.1118,-2.0761 -3.0423,-3.9682 -3.0423,-7.8042 v -12.037 c 0,0 12.8388,-0.1888 18.3944,-5.7443 5.5556,-5.5556 7.1429,-14.5503 7.1429,-20.1059 0,-2.7777 0.0291,-10.2438 0.0291,-14.1468 0,-2.3839 5.175,-8.2915 8.4103,-8.2915 1.6087,0 0.6794,-2.9021 -1.437,-2.9021 -2.1164,0 -7.209,0.3307 -9.7884,2.9101 -2.5793,2.5794 -4.2328,9.6561 -4.2328,21.8254 0,12.1693 -1.0582,15.4762 -4.1005,18.5185 -4.564,4.564 -14.418,4.8942 -14.418,4.8942 V 32.65485 c 0,-4.2328 2.7248,-5.4045 1.8519,-8.4656 -0.7696,-2.6984 -9.1698,-2.7416 -10.1591,-0.1158 -1.1142,2.9572 1.8518,4.2328 1.8518,8.4656 V 60.7683 c 0,0 -9.854,-0.3303 -14.418,-4.8942 -3.0423,-3.0423 -4.1005,-6.3492 -4.1005,-18.5185 0,-12.1693 -1.6534,-19.2461 -4.2328,-21.8254 -2.5794,-2.5794 -7.672,-2.9101 -9.7884,-2.9101 -2.1164,0 -3.0457,2.9021 -1.437,2.9021 3.2354,0 8.0485,5.6564 8.0485,8.0403 0,3.903 0.0292,11.369 0.0292,14.1468 0,5.5556 1.5873,14.5503 7.1428,20.1058 5.5556,5.5556 18.7562,5.9955 18.7562,5.9955 v 12.0371 c 0,3.8359 -0.979475,6.258054 -2.538475,8.023254 -1.8519,2.0969 -7.557325,4.312946 -7.557325,4.312946 3.5111,0.1766 6.8013,-0.1994 9.6277,-1.7347 0.8554,0.4566 -0.988,2.6227 -1.2094,3.528 1.188,-0.3273 3.2527,-1.6957 3.6329,-2.6513 0.8078,0.7597 1.0275,2.3772 1.6567,3.1157 0.6709,-0.7659 0.9754,-2.0889 1.8125,-3.1202 0,0 1.7526,3.0261 3.2291,3.2112 -0.2515,-1.0005 -1.1138,-2.6773 -0.6077,-3.4287 z"
             inkscape:label="path1873"
             style="fill:none;fill-opacity:1;stroke:url(#linearGradient1);stroke-width:0.99981;stroke-dasharray:none;stroke-opacity:1"
             id="path310"
             sodipodi:nodetypes="cccsccsssscsscsccsccscssssscsccccccccc" />
        </g>
        <path
           id="path928"
           style="opacity:1;fill:none;fill-opacity:1;stroke:#6d7a60;stroke-width:1.40108;stroke-linecap:round;stroke-linejoin:bevel;stroke-dasharray:none;stroke-opacity:1"
           d="m 32.76195,4.6604964 c -0.09957,-0.019461 -0.202159,0.013552 -0.271693,0.08743 -0.393387,0.4206676 -0.653026,1.1770914 -0.837778,2.1208893 -0.184752,0.943798 -0.263719,2.0626078 -0.152517,3.1425543 0.01013,0.0984 0.02356,0.196382 0.03689,0.29402 -0.03925,0.0079 -0.07746,0.01409 -0.117048,0.02256 -1.073074,0.229608 -2.252124,0.666956 -3.290815,1.31639 -0.816529,0.510529 -1.549416,1.154667 -2.056494,1.939683 -0.43062,-0.333291 -0.879961,-0.621901 -1.318738,-0.853855 -0.833813,-0.440787 -1.612064,-0.695202 -2.222489,-0.654317 -0.078,0.0084 -0.149468,0.04744 -0.198626,0.108583 -0.658117,-0.181207 -1.546177,-0.132836 -2.536035,0.07897 -1.073074,0.229608 -2.252124,0.669071 -3.290815,1.318505 -0.816702,0.510637 -1.547792,1.155146 -2.054366,1.940388 -0.431178,-0.333898 -0.881465,-0.622276 -1.320866,-0.854561 -0.833813,-0.440787 -1.612064,-0.695202 -2.222489,-0.654316 -0.100693,0.0065 -0.191112,0.0639 -0.23977,0.152297 -0.275523,0.505768 -0.339079,1.304029 -0.281624,2.264022 0.05745,0.959994 0.262498,2.064217 0.64057,3.081917 0.151243,0.407119 0.330455,0.800711 0.540548,1.165502 -0.148561,0.174752 -0.285628,0.357782 -0.409312,0.549259 -0.43062,-0.333291 -0.879961,-0.621195 -1.3187384,-0.85315 -0.8338131,-0.440786 -1.6141919,-0.695203 -2.2246167,-0.654317 -0.1001764,0.0069 -0.1899614,0.06431 -0.2383518,0.152298 -0.2755227,0.505768 -0.3383691,1.305438 -0.2809146,2.265431 0.057455,0.959993 0.2603709,2.062102 0.6384423,3.079802 0.08362,0.22509 0.1775779,0.445583 0.2787864,0.659958 C 7.8695271,25.821509 7.7268248,25.769186 7.5860433,25.723436 6.6890655,25.43194 5.8778029,25.313516 5.2833947,25.458325 c -0.098793,0.02385 -0.1783793,0.09683 -0.210686,0.193192 -0.1848464,0.545479 -0.1096209,1.341441 0.1113727,2.277418 0.2209935,0.935976 0.6109521,1.98887 1.1577087,2.926799 0.072563,0.124476 0.1482061,0.246615 0.2262924,0.366643 -0.2867737,-0.0078 -0.5664708,-0.0065 -0.8356501,0.0042 -1.118065,0.0447 -2.0349056,0.209762 -2.5885289,0.587334 -0.097677,0.06632 -0.1544651,0.178142 -0.1503886,0.296135 0.023383,0.711441 0.4096363,1.583142 1.016542,2.497404 0.2465331,0.371385 0.5336598,0.746297 0.8512565,1.1098 0.016338,0.332346 0.074978,0.701808 0.1681231,1.10275 0.1980881,0.852667 0.5694267,1.822904 1.1094709,2.72303 0.2800792,0.466826 0.6061534,0.914655 0.9789448,1.315684 -0.8123172,-0.117846 -1.4848175,-0.137031 -1.9302239,0.0035 -0.091029,0.02831 -0.1494529,0.0957 -0.1546449,0.178386 -0.032134,0.497319 0.243164,1.170931 0.708671,1.913595 0.4655071,0.742664 1.1337459,1.543532 1.9451209,2.225241 0.044833,0.03767 0.091897,0.07377 0.1376198,0.110698 -0.3493851,0.0525 -0.6914824,0.123846 -1.0165421,0.211525 -0.9174784,0.247473 -1.6962253,0.597607 -2.1856008,1.054804 -0.081271,0.07545 -0.1281325,0.182714 -0.1241416,0.284148 0.023455,0.576325 0.3715797,1.225596 0.9009131,1.9143 0.4294922,0.558803 0.9888817,1.119989 1.6251903,1.584322 -0.6352556,0.03891 -1.1529416,0.161487 -1.4740923,0.38991 -0.067413,0.04763 -0.094189,0.132263 -0.070938,0.224217 0.1324155,0.522841 0.6049937,1.192041 1.2676627,1.941093 0.1361744,0.153926 0.2824504,0.309957 0.4341408,0.466765 -0.059757,-0.0076 -0.1177946,-0.01337 -0.1730888,-0.01481 -0.095009,-0.0026 -0.1718833,0.04211 -0.2035922,0.118454 -0.1923023,0.45976 -0.1522325,1.186044 0.04611,2.039805 0.1983424,0.853761 0.5699354,1.829099 1.1151459,2.737836 0.2617819,0.436328 0.5647735,0.858121 0.9094256,1.242356 -0.5357989,0.02017 -0.9786298,0.09098 -1.2896535,0.231973 -0.086473,0.03914 -0.1360135,0.11287 -0.1312354,0.195308 0.027605,0.497592 0.3810988,1.133959 0.9321258,1.815588 0.5510271,0.681629 1.3105465,1.39662 2.1976604,1.976347 0.210284,0.13742 0.428569,0.266452 0.65263,0.386386 -0.461741,0.115698 -0.847037,0.27181 -1.127915,0.482981 -0.09451,0.07092 -0.1459519,0.185428 -0.1362009,0.303186 0.056161,0.709607 0.4816279,1.562741 1.1300429,2.448048 0.648415,0.885308 1.531346,1.783453 2.548803,2.465674 0.251895,0.168899 0.512023,0.324439 0.779609,0.46324 -10e-7,4.7e-4 -10e-7,9.4e-4 0,0.0014 0.497481,1.906488 2.198285,3.431986 4.274017,3.853983 0.563895,0.11464 1.157376,0.142804 1.754297,0.07192 -0.306271,0.263631 -0.539347,0.517798 -0.67533,0.757964 -0.04661,0.08249 -0.04313,0.17109 0.0092,0.234793 0.315451,0.385811 0.97558,0.69186 1.822398,0.918018 0.846819,0.226162 1.882023,0.35666 2.940382,0.30248 0.187002,-0.0096 0.374725,-0.02764 0.562539,-0.04936 -0.07569,0.148152 -0.134976,0.292975 -0.173089,0.434331 -0.03096,0.113682 -0.0015,0.235298 0.07803,0.322223 0.480892,0.524822 1.340416,0.93569 2.396286,1.2346 1.05587,0.298911 2.303797,0.463358 3.525621,0.375104 1.221825,-0.08825 2.424696,-0.430138 3.357497,-1.178194 0.767307,-0.615338 1.333197,-1.510697 1.554252,-2.701877 0.16004,0.05441 0.323317,0.106675 0.494438,0.155118 0.65846,0.186406 1.391721,0.320579 2.146585,0.373694 8.78e-4,0.0028 0.0018,0.0057 0.0028,0.0085 0.315451,0.385811 0.976244,0.69186 1.823107,0.918018 0.846819,0.226162 1.882023,0.355955 2.940382,0.301775 0.186674,-0.0096 0.373635,-0.02699 0.56112,-0.04865 -0.07576,0.148395 -0.134952,0.29359 -0.173089,0.435036 -0.02962,0.11339 5.98e-4,0.234057 0.08016,0.320107 0.480892,0.524821 1.340417,0.937806 2.396287,1.236716 3.153213,1.020265 5.404548,-0.342701 8.467164,-0.432921 0.186441,-0.0095 0.373868,-0.02703 0.56112,-0.04865 -0.07566,0.148102 -0.13428,0.293021 -0.17238,0.434331 -0.03058,0.113925 -5.86e-4,0.235573 0.07945,0.322223 0.480892,0.524821 1.341127,0.93569 2.396996,1.2346 1.05587,0.29891 2.303087,0.463357 3.524911,0.375104 1.221824,-0.08825 2.424696,-0.429431 3.357497,-1.177488 0.639935,-0.513193 1.139892,-1.221085 1.416633,-2.132876 0.803477,0.971381 1.969122,1.683273 3.285849,1.950964 1.037866,0.210998 2.176878,0.132707 3.249672,-0.326453 0.818057,-0.350131 1.590361,-0.915071 2.272145,-1.717582 0.870325,0.723422 2.017149,1.227795 3.44617,1.409461 0.05801,0.0076 0.11291,-0.0024 0.158901,-0.02891 0.09854,-0.05683 0.189642,-0.114465 0.277368,-0.17345 0.356937,0.03816 0.76061,0.03605 1.213749,-0.01199 0.05505,-0.0057 0.112632,-0.02349 0.166705,-0.05147 1.276599,-0.662099 2.024936,-1.511685 2.327477,-2.357092 0.302541,-0.845407 0.192971,-1.682793 -0.115629,-2.435357 -0.024,-0.05853 -0.04951,-0.116684 -0.0759,-0.174155 0.878569,0.08641 1.80593,-0.0329 2.687842,-0.410358 1.072795,-0.459159 2.066272,-1.286918 2.880794,-2.536889 0.032,-0.04875 0.04695,-0.102332 0.04327,-0.155118 -0.05638,-0.781366 -0.272458,-1.351298 -0.631348,-1.733798 0.775743,-0.485372 1.492955,-1.18757 2.107569,-2.130761 0.03216,-0.04897 0.04712,-0.10281 0.04327,-0.155823 -0.01934,-0.268013 -0.05879,-0.509614 -0.11492,-0.729056 0.584129,-0.562165 1.029934,-1.317015 1.364848,-2.12935 0.343314,-0.83271 0.567577,-1.728064 0.68668,-2.555925 0.428185,-0.233362 0.765843,-0.511644 0.966886,-0.857381 0.04921,-0.08474 0.06528,-0.204558 0.04256,-0.317288 -0.08509,-0.429224 -0.270512,-0.889067 -0.529197,-1.359399 0.516326,0.19885 1.028224,0.364277 1.506014,0.492148 0.966105,0.258568 1.774978,0.382861 2.301939,0.267931 0.09292,-0.0201 0.156941,-0.08187 0.169542,-0.163579 0.07717,-0.492347 -0.135188,-1.188131 -0.531326,-1.970002 -0.396075,-0.781834 -0.988968,-1.63973 -1.735081,-2.392309 -0.240334,-0.242417 -0.498769,-0.472476 -0.770387,-0.686751 0.333075,-0.270156 0.630022,-0.57421 0.885307,-0.902506 1.300266,-1.67214 1.596983,-3.937655 0.73279,-5.70835 -0.06391,-0.125049 -0.23127,-0.168996 -0.400091,-0.105058 0.05751,-0.204399 0.108376,-0.408098 0.149679,-0.608486 0.358045,-0.367449 0.667308,-0.779738 0.930707,-1.214858 0.604605,-0.998773 0.972634,-2.122219 1.127915,-3.136914 0.03375,-0.220542 0.05617,-0.434015 0.07094,-0.641625 0.150281,-0.700645 0.143062,-1.431647 0.02979,-2.074354 -0.115337,-0.654447 -0.313378,-1.205995 -0.649792,-1.582911 0.192169,-0.280063 0.356422,-0.574464 0.4916,-0.877123 0.863819,-1.934053 0.611867,-4.204811 -0.649792,-5.718222 -0.0064,-0.0048 -0.01299,-0.0093 -0.01986,-0.0134 -0.199403,-0.287575 -0.453242,-0.572422 -0.750524,-0.849624 0.08695,-0.05025 0.168336,-0.101714 0.236933,-0.156529 0.0742,-0.05913 0.104191,-0.142688 0.07945,-0.221396 -0.05434,-0.173219 -0.156459,-0.353929 -0.296521,-0.538683 0.329384,-0.184121 0.633686,-0.397011 0.900204,-0.623998 0.563616,-0.480017 0.966466,-0.983327 1.081096,-1.52721 0.02045,-0.09563 -0.0015,-0.214379 -0.05817,-0.314467 -0.341381,-0.603642 -0.946741,-1.202784 -1.686907,-1.750721 -0.740166,-0.547936 -1.613372,-1.023541 -2.465097,-1.262098 -0.02876,-0.0081 -0.05712,-0.01505 -0.08584,-0.02256 0.0065,-0.02353 0.01367,-0.0472 0.01915,-0.07051 0.02726,-0.114162 -0.0056,-0.23434 -0.08725,-0.318697 -0.198313,-0.202914 -0.458701,-0.384614 -0.764712,-0.54785 0.322145,-0.597017 0.591355,-1.203096 0.795925,-1.776103 0.376221,-1.053813 0.564788,-1.964791 0.421372,-2.619383 -0.02519,-0.115174 -0.107662,-0.209394 -0.21849,-0.2496 -0.51912,-0.189499 -1.209984,-0.210766 -1.995487,-0.107877 -0.0069,-0.130714 -0.01553,-0.26015 -0.02625,-0.386386 -0.09469,-1.114943 -0.301026,-2.022576 -0.702996,-2.558745 -0.07032,-0.09397 -0.183736,-0.145553 -0.300777,-0.136786 -0.709681,0.0552 -1.564725,0.480213 -2.450909,1.127427 -0.279525,0.204148 -0.559589,0.433502 -0.834231,0.68111 -0.387174,-0.359262 -0.892989,-0.702468 -1.480477,-1.02096 -0.412597,-0.223679 -0.866334,-0.429428 -1.343566,-0.607781 0.22142,-0.278822 0.427855,-0.558885 0.611485,-0.834113 0.621025,-0.930802 1.024966,-1.771177 1.044918,-2.440997 0.0031,-0.117004 -0.05357,-0.227539 -0.150389,-0.293315 -0.589309,-0.39926 -1.523359,-0.600164 -2.619742,-0.646561 -1.096383,-0.0464 -2.346763,0.08047 -3.514979,0.449138 -0.228893,0.07223 -0.45514,0.154523 -0.67604,0.246074 0.03844,-0.09725 0.06946,-0.193276 0.09151,-0.286969 0.02682,-0.114062 -0.0063,-0.233926 -0.08796,-0.317992 -0.49753,-0.509074 -1.37249,-0.891558 -2.437431,-1.1563359 C 74.946269,9.828235 74.455602,9.7430147 73.948573,9.6898525 74.09344,9.3634104 74.223222,9.0398993 74.332348,8.7267093 74.700523,7.6700578 74.880841,6.7572801 74.732438,6.1038011 74.70682,5.9891632 74.624414,5.8955561 74.513949,5.8556119 73.84344,5.61663 72.88925,5.6549124 71.816176,5.8845203 70.743102,6.1141283 69.56405,6.553591 68.52536,7.2030252 67.708658,7.7136628 66.977568,8.3581714 66.470995,9.1434133 66.039788,8.8094845 65.589562,8.5211544 65.150129,8.2888528 64.316316,7.8480665 63.538065,7.5922396 62.92764,7.6331258 62.84916,7.6416758 62.777378,7.6812858 62.728304,7.7431187 62.070512,7.5621255 61.184637,7.6103563 60.195107,7.822088 59.122033,8.0516959 57.940853,8.4890435 56.902163,9.1384777 56.749925,9.2336636 56.601438,9.3343631 56.455963,9.438843 56.270685,9.2370745 56.081211,9.0472073 55.890587,8.8733665 55.79729,8.7882836 55.70395,8.7072483 55.611091,8.6294079 55.60794,8.4680128 55.592297,8.3164743 55.560725,8.1774497 55.534755,8.0629154 55.452085,7.9695787 55.341526,7.9299657 55.026643,7.8177355 54.647785,7.7689038 54.224962,7.7706169 c -0.109938,-0.03912 -0.217815,-0.069068 -0.322768,-0.08884 -0.09888,-0.018689 -0.200476,0.014261 -0.269565,0.08743 -0.01129,0.012067 -0.02227,0.025458 -0.03334,0.038074 -0.304275,0.032175 -0.622847,0.082674 -0.954826,0.1537081 -1.073075,0.2296082 -2.252126,0.6669558 -3.290816,1.31639 C 48.912262,9.5533517 48.495261,9.8685967 48.125,10.2236 47.68473,10.412139 47.266123,10.640252 46.885713,10.915286 46.584678,10.707732 46.278859,10.522033 45.978415,10.363207 45.695207,10.213491 45.419421,10.08702 45.153406,9.9845771 44.521212,9.4392093 43.900594,9.0617094 43.353708,8.9586816 c -0.03276,-0.00336 -0.06584,-0.00121 -0.09789,0.00635 0.09502,-0.1309325 0.187485,-0.2612138 0.273821,-0.3906159 0.621025,-0.9308022 1.024964,-1.7718815 1.044917,-2.4417019 0.0029,-0.1167565 -0.05379,-0.2269703 -0.150388,-0.2926094 -0.58931,-0.39926 -1.523359,-0.6001636 -2.619742,-0.646561 -1.096382,-0.046397 -2.347473,0.080473 -3.515689,0.4491378 C 37.370403,5.9324824 36.5003,6.3729932 35.812995,7.0063071 35.479559,6.5756723 35.117219,6.1838417 34.750343,5.8492661 34.053462,5.21374 33.363167,4.7737593 32.76195,4.6604964 Z"
           sodipodi:nodetypes="ccsscsscsccsscsccssccsccsscsccsscsccscsscccsscsccscccscccsscscsscccssccscccsscccssscsccsscccsscccssscssccscccsscsccccccscsccsccsscscccsscscsccccccsccssccccssccsccscscsccsscscscsccsscsccsscscsccsscssccscccsccsscsc" />
      </g>
      <g
         id="text6"
         style="font-weight:bold;font-size:29.8937px;font-family:'Times New Roman';-inkscape-font-specification:'Times New Roman, Bold';letter-spacing:0px;fill:#ffffff;stroke-width:46.0909;stroke-linecap:round;stroke-linejoin:bevel"
         transform="matrix(0.8598601,0,0,1.1629799,10.659288,-1.5745176)"
         aria-label="L'essence&#10;de vie">
        <path
           d="m 112.40083,42.92901 q -1.63386,0 -2.54156,-0.642591 -0.9077,-0.678289 -0.9077,-1.606475 0,-1.427979 1.27078,-2.320465 1.30709,-0.928186 3.41295,-0.928186 1.48863,0 2.90465,0.392694 1.41601,0.392694 2.75941,0.928186 0.98032,-1.070984 1.85171,-2.284766 0.87139,-1.249481 1.63386,-2.463263 0.79878,-1.249481 1.48863,-2.427564 0.68985,-1.213781 1.30709,-2.213366 -1.48863,-0.249897 -2.75941,-0.749689 -1.23447,-0.535492 -2.17848,-1.285181 -0.9077,-0.749688 -1.41602,-1.749273 -0.50831,-1.035285 -0.50831,-2.284766 0,-1.677875 0.83509,-3.070154 0.83508,-1.427978 2.17848,-2.463263 1.3797,-1.035284 3.08618,-1.606475 1.70648,-0.606891 3.44927,-0.606891 1.27078,0 2.57787,0.392694 0.18154,0.0357 0.10892,0.214197 -0.0363,0.178497 -0.36308,0.0714 -0.54462,-0.178498 -1.08924,-0.214197 -0.54462,-0.0714 -1.12555,-0.0714 -1.63386,0 -3.26772,0.571191 -1.63387,0.535492 -2.94096,1.535077 -1.30708,0.999585 -2.10586,2.356165 -0.79878,1.32088 -0.79878,2.927356 0,1.142382 0.47201,2.141967 0.50831,0.963886 1.3797,1.713575 0.87139,0.713989 2.06956,1.178082 1.19817,0.464093 2.65049,0.64259 0.54462,-0.856787 1.19816,-1.892071 0.68986,-1.070984 1.37971,-2.177668 0.68985,-1.142382 1.3797,-2.213366 0.72616,-1.106684 1.37971,-1.963471 2.03325,-2.713159 3.77604,-3.819842 1.77909,-1.142383 3.30403,-1.142383 1.48863,0 2.21479,0.821088 0.72616,0.821087 0.54462,2.427563 -0.18154,1.820673 -1.27078,3.605646 -1.08924,1.784973 -2.83203,3.248651 -1.70648,1.463678 -3.95758,2.463263 -2.21479,0.963885 -4.64743,1.178082 -1.88801,3.212952 -3.66711,5.711914 -1.77909,2.498963 -3.70342,4.212537 1.05293,0.499792 2.03325,0.999585 1.01663,0.464093 1.96064,0.856787 0.98031,0.392694 1.88801,0.64259 0.90771,0.249897 1.74279,0.249897 1.05293,0 1.96063,-0.356995 0.94401,-0.392694 1.96064,-1.213782 1.05293,-0.856787 2.28741,-2.213366 1.23447,-1.35658 2.90464,-3.320051 l 0.54462,0.178497 q -1.67017,1.963471 -2.97726,3.427149 -1.30709,1.427979 -2.50525,2.356165 -1.19817,0.928186 -2.39634,1.392279 -1.19816,0.464093 -2.65048,0.499792 -1.16186,0.0357 -2.2511,-0.178497 -1.08924,-0.178497 -2.14218,-0.499793 -1.01662,-0.321295 -1.99694,-0.713989 -0.98032,-0.392694 -1.96063,-0.821087 -1.52494,1.070983 -3.23142,1.642175 -1.70648,0.535492 -3.70342,0.535492 z m 21.89375,-22.669159 q -2.06956,3.070154 -3.34034,5.140722 -1.27078,2.070569 -2.28741,3.641346 2.17849,-0.214197 4.21174,-1.142383 2.03325,-0.963886 3.6308,-2.356165 1.63387,-1.392279 2.6868,-3.070154 1.05293,-1.713574 1.30709,-3.427148 0.18154,-1.249481 -0.32677,-1.96347 -0.47201,-0.71399 -1.30709,-0.71399 -0.83509,0 -1.96064,0.856787 -1.12555,0.821088 -2.61418,3.034455 z m -16.37493,19.884601 q -1.27078,-0.535492 -2.61418,-0.928186 -1.30709,-0.392694 -2.68679,-0.392694 -1.74279,0 -2.50526,0.60689 -0.72616,0.606891 -0.72616,1.320881 0,0.64259 0.83509,1.249481 0.87139,0.571191 2.14217,0.571191 1.56125,0 2.94095,-0.64259 1.37971,-0.67829 2.61418,-1.784973 z m 27.48519,-6.568702 q -0.25415,0.571192 -0.94401,1.106684 -0.65354,0.535492 -1.59755,0.999585 -0.9077,0.464093 -1.99694,0.856787 -1.08924,0.392694 -2.17848,0.713989 -0.29047,0.963886 -0.29047,1.820673 0.0363,0.821088 0.29047,1.463678 0.29046,0.606891 0.76246,0.963885 0.50832,0.356995 1.16186,0.356995 0.68986,0 1.52494,-0.285596 0.83509,-0.285595 1.92433,-1.035284 1.08924,-0.749689 2.50525,-2.03487 1.41602,-1.32088 3.26773,-3.355749 h 0.65354 q -1.8154,2.141968 -3.34034,3.569946 -1.52494,1.427979 -2.83203,2.284766 -1.27078,0.856787 -2.32371,1.249481 -1.05294,0.356995 -1.92433,0.356995 -1.3434,0 -2.28741,-0.642591 -0.944,-0.678289 -1.3797,-1.749273 -0.39938,-1.070984 -0.21784,-2.427564 0.21784,-1.35658 1.19816,-2.748859 1.3797,-1.96347 2.97726,-3.034454 1.63386,-1.106683 3.1951,-1.106683 0.50832,0 0.94401,0.178497 0.47201,0.142798 0.76247,0.499792 0.32677,0.321296 0.36308,0.821088 0.0726,0.499793 -0.21785,1.178082 z m -6.57175,3.141553 q 2.36002,-0.713989 3.77603,-1.713574 1.41602,-0.999585 1.74279,-2.141968 0.21785,-0.749689 -0.0363,-1.106683 -0.25415,-0.392694 -0.65354,-0.392694 -0.65355,0 -1.41602,0.60689 -0.72616,0.606891 -1.41601,1.463678 -0.65354,0.856788 -1.19816,1.784974 -0.54463,0.892486 -0.79878,1.499377 z m 15.39463,-5.99751 q 0.39939,-0.356994 0.79877,-0.499792 0.39939,-0.142798 0.72617,-0.142798 0.61723,0 0.72616,0.392694 0.0726,0.178497 -0.14524,0.392694 -0.18154,0.178497 -0.61723,0.178497 -0.14524,0 -0.29047,0 -0.14523,0 -0.32677,-0.0714 -0.39939,-0.107099 -0.61724,0.428393 -0.21784,0.535492 -0.29046,1.392279 -0.0726,0.821088 -0.0726,1.749274 0,0.928186 0.0363,1.642175 0.10893,1.856372 -0.9077,3.534247 0.9077,-0.785388 1.99694,-1.856372 1.12555,-1.070984 2.46895,-2.570362 h 0.65354 q -2.25109,2.641761 -4.03019,4.212537 -1.77909,1.535077 -3.23141,2.320465 -0.68986,0.428394 -1.52494,0.67829 -0.83509,0.249896 -1.7791,0.249896 -1.67017,0 -2.43264,-0.749688 -0.76246,-0.785388 -0.83508,-1.713574 -0.0726,-0.928186 0.4357,-1.677875 0.50831,-0.785388 1.34339,-0.785388 0.47201,0 0.76247,0.321295 0.32678,0.321295 0.29047,0.785388 -0.0363,0.499792 -0.39939,0.821088 -0.32677,0.285595 -0.72616,0.285595 -0.32677,0 -0.58093,-0.142797 -0.25416,-0.178498 -0.4357,-0.428394 -0.21785,0.499792 -0.14523,0.999585 0.0726,0.499792 0.36308,0.928186 0.32677,0.392694 0.83509,0.64259 0.50831,0.249896 1.16185,0.249896 0.8714,0 1.67017,-0.535491 0.83509,-0.535492 1.48863,-1.392279 0.68986,-0.856788 1.16186,-1.963471 0.472,-1.106683 0.61724,-2.249066 0.18154,-1.463678 0.65354,-2.606061 0.47201,-1.142383 0.94401,-1.749274 -0.98032,0.821088 -1.99694,1.820673 -1.01663,0.999585 -1.70648,1.713574 h -0.68985 q 0.43569,-0.499793 0.98031,-1.106683 0.58093,-0.606891 1.19817,-1.213782 0.65355,-0.606891 1.27078,-1.213782 0.65355,-0.606891 1.19817,-1.070984 z m 17.13739,0 q 0.39939,-0.356994 0.79878,-0.499792 0.39939,-0.142798 0.72616,-0.142798 0.61724,0 0.72616,0.392694 0.0726,0.178497 -0.14523,0.392694 -0.18154,0.178497 -0.61724,0.178497 -0.14523,0 -0.29046,0 -0.14523,0 -0.32677,-0.0714 -0.39939,-0.107099 -0.61724,0.428393 -0.21785,0.535492 -0.29046,1.392279 -0.0726,0.821088 -0.0726,1.749274 0,0.928186 0.0363,1.642175 0.10892,1.856372 -0.9077,3.534247 0.9077,-0.785388 1.99694,-1.856372 1.12555,-1.070984 2.46895,-2.570362 h 0.65354 q -2.2511,2.641761 -4.03019,4.212537 -1.7791,1.535077 -3.23142,2.320465 -0.68985,0.428394 -1.52494,0.67829 -0.83508,0.249896 -1.77909,0.249896 -1.67017,0 -2.43264,-0.749688 -0.76247,-0.785388 -0.83508,-1.713574 -0.0726,-0.928186 0.43569,-1.677875 0.50832,-0.785388 1.3434,-0.785388 0.472,0 0.76247,0.321295 0.32677,0.321295 0.29046,0.785388 -0.0363,0.499792 -0.39939,0.821088 -0.32677,0.285595 -0.72616,0.285595 -0.32677,0 -0.58092,-0.142797 -0.25416,-0.178498 -0.4357,-0.428394 -0.21785,0.499792 -0.14523,0.999585 0.0726,0.499792 0.36308,0.928186 0.32677,0.392694 0.83508,0.64259 0.50831,0.249896 1.16186,0.249896 0.87139,0 1.67017,-0.535491 0.83508,-0.535492 1.48863,-1.392279 0.68985,-0.856788 1.16186,-1.963471 0.472,-1.106683 0.61723,-2.249066 0.18154,-1.463678 0.65355,-2.606061 0.472,-1.142383 0.94401,-1.749274 -0.98032,0.821088 -1.99695,1.820673 -1.01662,0.999585 -1.70647,1.713574 h -0.68986 q 0.4357,-0.499793 0.98032,-1.106683 0.58093,-0.606891 1.19817,-1.213782 0.65354,-0.606891 1.27078,-1.213782 0.65354,-0.606891 1.19816,-1.070984 z m 11.32811,2.855957 q -0.25415,0.571192 -0.94401,1.106684 -0.65354,0.535492 -1.59755,0.999585 -0.9077,0.464093 -1.99694,0.856787 -1.08924,0.392694 -2.17849,0.713989 -0.29046,0.963886 -0.29046,1.820673 0.0363,0.821088 0.29046,1.463678 0.29047,0.606891 0.76247,0.963885 0.50832,0.356995 1.16186,0.356995 0.68985,0 1.52494,-0.285596 0.83508,-0.285595 1.92433,-1.035284 1.08924,-0.749689 2.50525,-2.03487 1.41601,-1.32088 3.26772,-3.355749 h 0.65355 q -1.8154,2.141968 -3.34034,3.569946 -1.52494,1.427979 -2.83203,2.284766 -1.27078,0.856787 -2.32371,1.249481 -1.05294,0.356995 -1.92433,0.356995 -1.3434,0 -2.28741,-0.642591 -0.94401,-0.678289 -1.3797,-1.749273 -0.39939,-1.070984 -0.21785,-2.427564 0.21785,-1.35658 1.19817,-2.748859 1.3797,-1.96347 2.97725,-3.034454 1.63387,-1.106683 3.19511,-1.106683 0.50832,0 0.94401,0.178497 0.47201,0.142798 0.76247,0.499792 0.32677,0.321296 0.36308,0.821088 0.0726,0.499793 -0.21785,1.178082 z m -6.57175,3.141553 q 2.36002,-0.713989 3.77603,-1.713574 1.41602,-0.999585 1.74279,-2.141968 0.21785,-0.749689 -0.0363,-1.106683 -0.25415,-0.392694 -0.65354,-0.392694 -0.65355,0 -1.41602,0.60689 -0.72616,0.606891 -1.41601,1.463678 -0.65355,0.856788 -1.19817,1.784974 -0.54462,0.892486 -0.79877,1.499377 z m 10.74718,-1.392279 q 1.96063,-2.177667 3.19511,-3.212952 1.23447,-1.070984 2.21479,-1.070984 1.05293,0 1.34339,1.106684 0.29047,1.106683 -0.68985,3.355749 0.94401,-1.142383 1.67017,-1.96347 0.76247,-0.856787 1.37971,-1.392279 0.65354,-0.571192 1.23447,-0.821088 0.58093,-0.285596 1.19817,-0.285596 0.65354,0 1.19816,0.356995 0.54462,0.321295 0.79878,0.999585 0.25415,0.64259 0.0726,1.642175 -0.18154,0.963886 -0.98031,2.249066 l -1.96064,3.141553 q -0.72616,1.213782 -0.50831,1.927771 0.21785,0.71399 0.79878,0.71399 0.83508,0 1.92432,-0.999585 1.08924,-1.035285 2.97726,-3.034455 0.50832,-0.571191 0.94401,-1.035284 0.47201,-0.499793 0.79878,-0.892487 0.39939,-0.428393 0.72616,-0.821088 h 0.68985 q -1.63386,1.856373 -2.86833,3.248652 -1.19817,1.392279 -2.17849,2.284766 -0.944,0.892486 -1.70647,1.356579 -0.76247,0.428394 -1.48863,0.428394 -0.65355,0 -1.19817,-0.392694 -0.50831,-0.428394 -0.72616,-1.178083 -0.21785,-0.749688 0,-1.820672 0.21785,-1.070984 1.05293,-2.391864 l 1.63387,-2.606061 q 0.76246,-1.213782 0.54462,-1.927771 -0.21785,-0.71399 -0.72616,-0.71399 -0.58093,0 -1.45233,0.67829 -0.87139,0.67829 -1.85171,1.749274 -0.94401,1.070984 -1.96063,2.391864 -1.01663,1.285181 -1.88802,2.498963 -0.87139,1.213781 -1.56125,2.249066 -0.65354,0.999585 -0.944,1.463678 h -2.28741 l 5.19205,-8.389374 q 0.72616,-1.213782 0.87139,-1.927771 0.14523,-0.71399 -0.36308,-0.71399 -0.58093,0 -1.63386,0.963886 -1.05293,0.963885 -2.79572,2.784558 z m 22.91039,-4.605231 q 0.39939,-0.356994 0.79878,-0.499792 0.39939,-0.142798 0.72616,-0.142798 0.61724,0 0.72616,0.392694 0.0726,0.178497 -0.14523,0.392694 -0.18154,0.178497 -0.61724,0.178497 -0.14523,0 -0.29046,0 -0.14523,0 -0.32678,-0.0714 -0.39938,-0.107099 -0.61723,0.428393 -0.21785,0.535492 -0.29047,1.392279 -0.0726,0.821088 -0.0726,1.749274 0,0.928186 0.0363,1.642175 0.10892,1.856372 -0.90771,3.534247 0.90771,-0.785388 1.99695,-1.856372 1.12555,-1.070984 2.46894,-2.570362 h 0.65355 q -2.2511,2.641761 -4.03019,4.212537 -1.7791,1.535077 -3.23142,2.320465 -0.68985,0.428394 -1.52494,0.67829 -0.83508,0.249896 -1.77909,0.249896 -1.67017,0 -2.43264,-0.749688 -0.76247,-0.785388 -0.83509,-1.713574 -0.0726,-0.928186 0.4357,-1.677875 0.50831,-0.785388 1.3434,-0.785388 0.472,0 0.76247,0.321295 0.32677,0.321295 0.29046,0.785388 -0.0363,0.499792 -0.39939,0.821088 -0.32677,0.285595 -0.72616,0.285595 -0.32677,0 -0.58093,-0.142797 -0.25415,-0.178498 -0.43569,-0.428394 -0.21785,0.499792 -0.14523,0.999585 0.0726,0.499792 0.36308,0.928186 0.32677,0.392694 0.83508,0.64259 0.50831,0.249896 1.16186,0.249896 0.87139,0 1.67017,-0.535491 0.83508,-0.535492 1.48863,-1.392279 0.68985,-0.856788 1.16185,-1.963471 0.47201,-1.106683 0.61724,-2.249066 0.18154,-1.463678 0.65355,-2.606061 0.472,-1.142383 0.94401,-1.749274 -0.98032,0.821088 -1.99695,1.820673 -1.01662,0.999585 -1.70647,1.713574 h -0.68986 q 0.4357,-0.499793 0.98032,-1.106683 0.58093,-0.606891 1.19816,-1.213782 0.65355,-0.606891 1.27079,-1.213782 0.65354,-0.606891 1.19816,-1.070984 z m -93.92894,32.45081 q 1.3797,0 1.99694,0.67829 0.65354,0.67829 0.61723,1.642175 l 7.33423,-11.745123 h 2.28741 l -11.03765,17.814032 q -0.72616,1.213782 -0.50831,1.927771 0.21785,0.713989 0.79877,0.713989 0.83509,0 1.92433,-0.999585 1.08924,-1.035284 2.97726,-3.034454 0.50831,-0.571192 0.94401,-1.035285 0.472,-0.499792 0.79878,-0.892486 0.39939,-0.428394 0.72616,-0.821088 h 0.68985 q -1.63386,1.856372 -2.86833,3.248651 -1.19817,1.392279 -2.17849,2.284766 -0.94401,0.892486 -1.70648,1.356579 -0.76246,0.428394 -1.48863,0.428394 -0.98031,0 -1.59755,-0.856787 -0.58093,-0.856787 -0.36308,-2.213367 -0.94401,1.35658 -2.03325,2.284766 -1.08924,0.928186 -2.46895,0.928186 -1.08924,0 -1.8154,-0.642591 -0.68985,-0.678289 -0.9077,-1.749273 -0.21785,-1.070984 0.0726,-2.427564 0.32677,-1.356579 1.30709,-2.748858 1.3797,-1.963471 3.01356,-3.034455 1.67017,-1.106683 3.48558,-1.106683 z m 0.36308,0.464093 q -1.16186,0 -2.32372,0.999585 -1.16186,0.963886 -2.28741,2.784558 -0.79877,1.32088 -1.19816,2.570361 -0.36308,1.213782 -0.36308,2.177668 0,0.928186 0.29046,1.499377 0.32678,0.571191 0.9077,0.571191 0.61724,0 1.30709,-0.535491 0.68986,-0.535492 1.41602,-1.427979 0.72616,-0.892487 1.45232,-2.034869 0.76247,-1.142383 1.52494,-2.320465 0.61723,-0.963886 0.76247,-1.749274 0.18154,-0.785388 0.0363,-1.32088 -0.10892,-0.571192 -0.54462,-0.892487 -0.39939,-0.321295 -0.98031,-0.321295 z m 16.44755,2.070569 q -0.25415,0.571191 -0.94401,1.106683 -0.65354,0.535492 -1.59755,0.999585 -0.9077,0.464093 -1.99694,0.856787 -1.08924,0.392694 -2.17849,0.71399 -0.29046,0.963885 -0.29046,1.820672 0.0363,0.821088 0.29046,1.463678 0.29047,0.606891 0.76247,0.963886 0.50832,0.356994 1.16186,0.356994 0.68985,0 1.52494,-0.285595 0.83508,-0.285596 1.92432,-1.035285 1.08925,-0.749689 2.50526,-2.034869 1.41601,-1.32088 3.26773,-3.35575 h 0.65355 q -1.81541,2.141968 -3.34035,3.569947 -1.52494,1.427978 -2.83203,2.284765 -1.27078,0.856787 -2.32371,1.249481 -1.05294,0.356995 -1.92433,0.356995 -1.3434,0 -2.28741,-0.64259 -0.94401,-0.67829 -1.3797,-1.749274 -0.39939,-1.070984 -0.21785,-2.427563 0.21785,-1.35658 1.19816,-2.748859 1.37971,-1.963471 2.97726,-3.034454 1.63387,-1.106684 3.19511,-1.106684 0.50831,0 0.94401,0.178498 0.47201,0.142797 0.76247,0.499792 0.32677,0.321295 0.36308,0.821088 0.0726,0.499792 -0.21785,1.178082 z m -6.57175,3.141553 q 2.36002,-0.71399 3.77603,-1.713575 1.41602,-0.999584 1.74279,-2.141967 0.21785,-0.749689 -0.0363,-1.106684 -0.25416,-0.392694 -0.65354,-0.392694 -0.65355,0 -1.41602,0.606891 -0.72616,0.606891 -1.41601,1.463678 -0.65355,0.856787 -1.19817,1.784973 -0.54462,0.892487 -0.79877,1.499378 z m 32.42309,-1.427979 q -0.94401,0.928186 -1.67017,1.427979 -0.72616,0.499792 -1.56125,0.499792 -0.61724,0 -1.16186,-0.285596 -0.54462,-0.321295 -0.79877,-0.821087 -2.79572,3.427148 -4.61113,4.962225 -1.8154,1.535077 -2.90464,1.535077 -0.76247,0 -1.27078,-0.464093 -0.50831,-0.464093 -0.68985,-1.249481 -0.14524,-0.821088 0.10892,-1.856372 0.25416,-1.035285 0.98032,-2.213367 l 3.66711,-5.783313 h 2.28741 l -5.19205,8.389374 q -0.72616,1.213782 -0.50832,1.927771 0.21785,0.713989 0.79878,0.713989 0.61724,0 1.56125,-0.713989 0.94401,-0.713989 1.96063,-1.749274 1.05293,-1.035284 1.99694,-2.177667 0.98032,-1.178082 1.63387,-2.034869 -0.32678,-0.856788 -0.36308,-1.642176 0,-0.785388 0.18154,-1.392279 0.21784,-0.606891 0.58092,-0.963885 0.36308,-0.392694 0.79878,-0.392694 h 0.0363 q 0.472,0 0.79878,0.285595 0.36308,0.249897 0.39938,0.821088 0.0363,0.571191 -0.36308,1.463678 -0.36308,0.856787 -1.30709,2.034869 0.29047,0.606891 0.65355,0.856787 0.36308,0.214197 0.79878,0.214197 0.61723,0 1.16185,-0.392694 0.58093,-0.392694 1.19817,-0.999585 z m 3.59451,-8.175177 q 0,-0.499792 0.36308,-0.856787 0.36308,-0.392694 0.9077,-0.392694 0.50832,0 0.8714,0.392694 0.39938,0.356995 0.39938,0.856787 0,0.535492 -0.39938,0.892487 -0.36308,0.356994 -0.8714,0.356994 -0.54462,0 -0.9077,-0.356994 -0.36308,-0.356995 -0.36308,-0.892487 z m -4.5022,15.493567 q -0.76246,0 -1.27078,-0.464093 -0.50831,-0.464093 -0.68985,-1.249481 -0.14523,-0.821088 0.10892,-1.856372 0.25416,-1.035285 0.98032,-2.213367 l 3.66711,-5.783313 h 2.28741 l -5.19205,8.389374 q -0.72616,1.213782 -0.50831,1.927771 0.21785,0.713989 0.79877,0.713989 0.83509,0 1.92433,-0.999585 1.08924,-1.035284 2.97726,-3.034454 0.50831,-0.571192 0.94401,-1.035285 0.472,-0.499792 0.79878,-0.892486 0.39938,-0.428394 0.72616,-0.821088 h 0.68985 q -1.63386,1.856372 -2.86834,3.248651 -1.19816,1.392279 -2.17848,2.284766 -0.94401,0.892486 -1.70648,1.356579 -0.76246,0.428394 -1.48863,0.428394 z m 15.46723,-9.031964 q -0.25416,0.571191 -0.94401,1.106683 -0.65354,0.535492 -1.59755,0.999585 -0.9077,0.464093 -1.99694,0.856787 -1.08925,0.392694 -2.17849,0.71399 -0.29046,0.963885 -0.29046,1.820672 0.0363,0.821088 0.29046,1.463678 0.29047,0.606891 0.76247,0.963886 0.50831,0.356994 1.16186,0.356994 0.68985,0 1.52494,-0.285595 0.83508,-0.285596 1.92432,-1.035285 1.08924,-0.749689 2.50526,-2.034869 1.41601,-1.32088 3.26772,-3.35575 h 0.65355 q -1.81541,2.141968 -3.34034,3.569947 -1.52494,1.427978 -2.83203,2.284765 -1.27078,0.856787 -2.32372,1.249481 -1.05293,0.356995 -1.92432,0.356995 -1.3434,0 -2.28741,-0.64259 -0.94401,-0.67829 -1.3797,-1.749274 -0.39939,-1.070984 -0.21785,-2.427563 0.21785,-1.35658 1.19816,-2.748859 1.37971,-1.963471 2.97726,-3.034454 1.63386,-1.106684 3.19511,-1.106684 0.50831,0 0.94401,0.178498 0.472,0.142797 0.76247,0.499792 0.32677,0.321295 0.36308,0.821088 0.0726,0.499792 -0.21785,1.178082 z m -6.57176,3.141553 q 2.36003,-0.71399 3.77604,-1.713575 1.41601,-0.999584 1.74279,-2.141967 0.21785,-0.749689 -0.0363,-1.106684 -0.25416,-0.392694 -0.65355,-0.392694 -0.65354,0 -1.41601,0.606891 -0.72616,0.606891 -1.41601,1.463678 -0.65355,0.856787 -1.19817,1.784973 -0.54462,0.892487 -0.79878,1.499378 z"
           id="text1"
           style="font-size:192px;line-height:0.9;font-family:'LT Perfume';-inkscape-font-specification:'LT Perfume, Normal';white-space:pre;stroke-width:0.475345"
           aria-label="Les sens&#10;de vie" />
      </g>
    </g>
  </g>
</svg>
