<?xml version="1.0" encoding="UTF-8" standalone="no"?>
<!-- Created with Inkscape (http://www.inkscape.org/) -->

<svg
   width="520.08258mm"
   height="209.45mm"
   viewBox="0 0 520.08257 209.45"
   version="1.1"
   id="svg1"
   inkscape:version="1.4 (86a8ad7, 2024-10-11)"
   sodipodi:docname="LogoEssenceDuVie.svg"
   xmlns:inkscape="http://www.inkscape.org/namespaces/inkscape"
   xmlns:sodipodi="http://sodipodi.sourceforge.net/DTD/sodipodi-0.dtd"
   xmlns:xlink="http://www.w3.org/1999/xlink"
   xmlns="http://www.w3.org/2000/svg"
   xmlns:svg="http://www.w3.org/2000/svg">
  <sodipodi:namedview
     id="namedview1"
     pagecolor="#505050"
     bordercolor="#ffffff"
     borderopacity="1"
     inkscape:showpageshadow="0"
     inkscape:pageopacity="0"
     inkscape:pagecheckerboard="1"
     inkscape:deskcolor="#505050"
     inkscape:document-units="mm"
     inkscape:zoom="0.38083965"
     inkscape:cx="1133.0228"
     inkscape:cy="681.38914"
     inkscape:window-width="1920"
     inkscape:window-height="1057"
     inkscape:window-x="1919"
     inkscape:window-y="-8"
     inkscape:window-maximized="1"
     inkscape:current-layer="text6" />
  <defs
     id="defs1">
    <linearGradient
       inkscape:collect="always"
       xlink:href="#linearGradient6"
       id="linearGradient323"
       x1="12.403576"
       y1="51.663231"
       x2="89.448227"
       y2="51.663231"
       gradientUnits="userSpaceOnUse" />
    <linearGradient
       id="linearGradient6"
       inkscape:collect="always">
      <stop
         style="stop-color:#ecc440;stop-opacity:1;"
         offset="0"
         id="stop6" />
      <stop
         style="stop-color:#ddda8a;stop-opacity:1;"
         offset="0.29652995"
         id="stop10" />
      <stop
         style="stop-color:#ddac17;stop-opacity:1;"
         offset="0.67350155"
         id="stop11" />
      <stop
         style="stop-color:#ffff95;stop-opacity:1;"
         offset="1"
         id="stop7" />
    </linearGradient>
    <linearGradient
       inkscape:collect="always"
       xlink:href="#linearGradient6"
       id="linearGradient1"
       gradientUnits="userSpaceOnUse"
       x1="12.403576"
       y1="51.663231"
       x2="89.448227"
       y2="51.663231" />
  </defs>
  <g
     inkscape:label="Layer 1"
     inkscape:groupmode="layer"
     id="layer1"
     transform="translate(-0.067539,-0.13289493)">
    <g
       id="g312"
       transform="matrix(2.2121694,0,0,2.2256526,-5.0044646,-8.6686254)">
      <g
         style="opacity:1;fill:none;fill-opacity:1;stroke:url(#linearGradient323);stroke-width:0.99981;stroke-dasharray:none;stroke-opacity:1"
         id="g311"
         transform="matrix(0.91809988,0,0,0.91809988,4.7238409,14.325342)">
        <path
           d="m 55.7442,87.1039 c 2.4793,0.8927 5.3072,1.2143 8.5053,0.939 0,0 -5.5868,-1.5366 -7.0536,-4.2753 -1.1118,-2.0761 -3.0423,-3.9682 -3.0423,-7.8042 v -12.037 c 0,0 12.8388,-0.1888 18.3944,-5.7443 5.5556,-5.5556 7.1429,-14.5503 7.1429,-20.1059 0,-2.7777 0.0291,-10.2438 0.0291,-14.1468 0,-2.3839 5.175,-8.2915 8.4103,-8.2915 1.6087,0 0.6794,-2.9021 -1.437,-2.9021 -2.1164,0 -7.209,0.3307 -9.7884,2.9101 -2.5793,2.5794 -4.2328,9.6561 -4.2328,21.8254 0,12.1693 -1.0582,15.4762 -4.1005,18.5185 -4.564,4.564 -14.418,4.8942 -14.418,4.8942 V 32.65485 c 0,-4.2328 2.7248,-5.4045 1.8519,-8.4656 -0.7696,-2.6984 -9.1698,-2.7416 -10.1591,-0.1158 -1.1142,2.9572 1.8518,4.2328 1.8518,8.4656 V 60.7683 c 0,0 -9.854,-0.3303 -14.418,-4.8942 -3.0423,-3.0423 -4.1005,-6.3492 -4.1005,-18.5185 0,-12.1693 -1.6534,-19.2461 -4.2328,-21.8254 -2.5794,-2.5794 -7.672,-2.9101 -9.7884,-2.9101 -2.1164,0 -3.0457,2.9021 -1.437,2.9021 3.2354,0 8.0485,5.6564 8.0485,8.0403 0,3.903 0.0292,11.369 0.0292,14.1468 0,5.5556 1.5873,14.5503 7.1428,20.1058 5.5556,5.5556 18.7562,5.9955 18.7562,5.9955 v 12.0371 c 0,3.8359 -0.979475,6.258054 -2.538475,8.023254 -1.8519,2.0969 -7.557325,4.312946 -7.557325,4.312946 3.5111,0.1766 6.8013,-0.1994 9.6277,-1.7347 0.8554,0.4566 -0.988,2.6227 -1.2094,3.528 1.188,-0.3273 3.2527,-1.6957 3.6329,-2.6513 0.8078,0.7597 1.0275,2.3772 1.6567,3.1157 0.6709,-0.7659 0.9754,-2.0889 1.8125,-3.1202 0,0 1.7526,3.0261 3.2291,3.2112 -0.2515,-1.0005 -1.1138,-2.6773 -0.6077,-3.4287 z"
           inkscape:label="path1873"
           style="fill:none;fill-opacity:1;stroke:url(#linearGradient1);stroke-width:0.99981;stroke-dasharray:none;stroke-opacity:1"
           id="path310"
           sodipodi:nodetypes="cccsccsssscsscsccsccscssssscsccccccccc" />
      </g>
      <path
         id="path928"
         style="opacity:1;fill:none;fill-opacity:1;stroke:#6d7a60;stroke-width:1.40108;stroke-linecap:round;stroke-linejoin:bevel;stroke-dasharray:none;stroke-opacity:1"
         d="m 32.76195,4.6604964 c -0.09957,-0.019461 -0.202159,0.013552 -0.271693,0.08743 -0.393387,0.4206676 -0.653026,1.1770914 -0.837778,2.1208893 -0.184752,0.943798 -0.263719,2.0626078 -0.152517,3.1425543 0.01013,0.0984 0.02356,0.196382 0.03689,0.29402 -0.03925,0.0079 -0.07746,0.01409 -0.117048,0.02256 -1.073074,0.229608 -2.252124,0.666956 -3.290815,1.31639 -0.816529,0.510529 -1.549416,1.154667 -2.056494,1.939683 -0.43062,-0.333291 -0.879961,-0.621901 -1.318738,-0.853855 -0.833813,-0.440787 -1.612064,-0.695202 -2.222489,-0.654317 -0.078,0.0084 -0.149468,0.04744 -0.198626,0.108583 -0.658117,-0.181207 -1.546177,-0.132836 -2.536035,0.07897 -1.073074,0.229608 -2.252124,0.669071 -3.290815,1.318505 -0.816702,0.510637 -1.547792,1.155146 -2.054366,1.940388 -0.431178,-0.333898 -0.881465,-0.622276 -1.320866,-0.854561 -0.833813,-0.440787 -1.612064,-0.695202 -2.222489,-0.654316 -0.100693,0.0065 -0.191112,0.0639 -0.23977,0.152297 -0.275523,0.505768 -0.339079,1.304029 -0.281624,2.264022 0.05745,0.959994 0.262498,2.064217 0.64057,3.081917 0.151243,0.407119 0.330455,0.800711 0.540548,1.165502 -0.148561,0.174752 -0.285628,0.357782 -0.409312,0.549259 -0.43062,-0.333291 -0.879961,-0.621195 -1.3187384,-0.85315 -0.8338131,-0.440786 -1.6141919,-0.695203 -2.2246167,-0.654317 -0.1001764,0.0069 -0.1899614,0.06431 -0.2383518,0.152298 -0.2755227,0.505768 -0.3383691,1.305438 -0.2809146,2.265431 0.057455,0.959993 0.2603709,2.062102 0.6384423,3.079802 0.08362,0.22509 0.1775779,0.445583 0.2787864,0.659958 C 7.8695271,25.821509 7.7268248,25.769186 7.5860433,25.723436 6.6890655,25.43194 5.8778029,25.313516 5.2833947,25.458325 c -0.098793,0.02385 -0.1783793,0.09683 -0.210686,0.193192 -0.1848464,0.545479 -0.1096209,1.341441 0.1113727,2.277418 0.2209935,0.935976 0.6109521,1.98887 1.1577087,2.926799 0.072563,0.124476 0.1482061,0.246615 0.2262924,0.366643 -0.2867737,-0.0078 -0.5664708,-0.0065 -0.8356501,0.0042 -1.118065,0.0447 -2.0349056,0.209762 -2.5885289,0.587334 -0.097677,0.06632 -0.1544651,0.178142 -0.1503886,0.296135 0.023383,0.711441 0.4096363,1.583142 1.016542,2.497404 0.2465331,0.371385 0.5336598,0.746297 0.8512565,1.1098 0.016338,0.332346 0.074978,0.701808 0.1681231,1.10275 0.1980881,0.852667 0.5694267,1.822904 1.1094709,2.72303 0.2800792,0.466826 0.6061534,0.914655 0.9789448,1.315684 -0.8123172,-0.117846 -1.4848175,-0.137031 -1.9302239,0.0035 -0.091029,0.02831 -0.1494529,0.0957 -0.1546449,0.178386 -0.032134,0.497319 0.243164,1.170931 0.708671,1.913595 0.4655071,0.742664 1.1337459,1.543532 1.9451209,2.225241 0.044833,0.03767 0.091897,0.07377 0.1376198,0.110698 -0.3493851,0.0525 -0.6914824,0.123846 -1.0165421,0.211525 -0.9174784,0.247473 -1.6962253,0.597607 -2.1856008,1.054804 -0.081271,0.07545 -0.1281325,0.182714 -0.1241416,0.284148 0.023455,0.576325 0.3715797,1.225596 0.9009131,1.9143 0.4294922,0.558803 0.9888817,1.119989 1.6251903,1.584322 -0.6352556,0.03891 -1.1529416,0.161487 -1.4740923,0.38991 -0.067413,0.04763 -0.094189,0.132263 -0.070938,0.224217 0.1324155,0.522841 0.6049937,1.192041 1.2676627,1.941093 0.1361744,0.153926 0.2824504,0.309957 0.4341408,0.466765 -0.059757,-0.0076 -0.1177946,-0.01337 -0.1730888,-0.01481 -0.095009,-0.0026 -0.1718833,0.04211 -0.2035922,0.118454 -0.1923023,0.45976 -0.1522325,1.186044 0.04611,2.039805 0.1983424,0.853761 0.5699354,1.829099 1.1151459,2.737836 0.2617819,0.436328 0.5647735,0.858121 0.9094256,1.242356 -0.5357989,0.02017 -0.9786298,0.09098 -1.2896535,0.231973 -0.086473,0.03914 -0.1360135,0.11287 -0.1312354,0.195308 0.027605,0.497592 0.3810988,1.133959 0.9321258,1.815588 0.5510271,0.681629 1.3105465,1.39662 2.1976604,1.976347 0.210284,0.13742 0.428569,0.266452 0.65263,0.386386 -0.461741,0.115698 -0.847037,0.27181 -1.127915,0.482981 -0.09451,0.07092 -0.1459519,0.185428 -0.1362009,0.303186 0.056161,0.709607 0.4816279,1.562741 1.1300429,2.448048 0.648415,0.885308 1.531346,1.783453 2.548803,2.465674 0.251895,0.168899 0.512023,0.324439 0.779609,0.46324 -10e-7,4.7e-4 -10e-7,9.4e-4 0,0.0014 0.497481,1.906488 2.198285,3.431986 4.274017,3.853983 0.563895,0.11464 1.157376,0.142804 1.754297,0.07192 -0.306271,0.263631 -0.539347,0.517798 -0.67533,0.757964 -0.04661,0.08249 -0.04313,0.17109 0.0092,0.234793 0.315451,0.385811 0.97558,0.69186 1.822398,0.918018 0.846819,0.226162 1.882023,0.35666 2.940382,0.30248 0.187002,-0.0096 0.374725,-0.02764 0.562539,-0.04936 -0.07569,0.148152 -0.134976,0.292975 -0.173089,0.434331 -0.03096,0.113682 -0.0015,0.235298 0.07803,0.322223 0.480892,0.524822 1.340416,0.93569 2.396286,1.2346 1.05587,0.298911 2.303797,0.463358 3.525621,0.375104 1.221825,-0.08825 2.424696,-0.430138 3.357497,-1.178194 0.767307,-0.615338 1.333197,-1.510697 1.554252,-2.701877 0.16004,0.05441 0.323317,0.106675 0.494438,0.155118 0.65846,0.186406 1.391721,0.320579 2.146585,0.373694 8.78e-4,0.0028 0.0018,0.0057 0.0028,0.0085 0.315451,0.385811 0.976244,0.69186 1.823107,0.918018 0.846819,0.226162 1.882023,0.355955 2.940382,0.301775 0.186674,-0.0096 0.373635,-0.02699 0.56112,-0.04865 -0.07576,0.148395 -0.134952,0.29359 -0.173089,0.435036 -0.02962,0.11339 5.98e-4,0.234057 0.08016,0.320107 0.480892,0.524821 1.340417,0.937806 2.396287,1.236716 3.153213,1.020265 5.404548,-0.342701 8.467164,-0.432921 0.186441,-0.0095 0.373868,-0.02703 0.56112,-0.04865 -0.07566,0.148102 -0.13428,0.293021 -0.17238,0.434331 -0.03058,0.113925 -5.86e-4,0.235573 0.07945,0.322223 0.480892,0.524821 1.341127,0.93569 2.396996,1.2346 1.05587,0.29891 2.303087,0.463357 3.524911,0.375104 1.221824,-0.08825 2.424696,-0.429431 3.357497,-1.177488 0.639935,-0.513193 1.139892,-1.221085 1.416633,-2.132876 0.803477,0.971381 1.969122,1.683273 3.285849,1.950964 1.037866,0.210998 2.176878,0.132707 3.249672,-0.326453 0.818057,-0.350131 1.590361,-0.915071 2.272145,-1.717582 0.870325,0.723422 2.017149,1.227795 3.44617,1.409461 0.05801,0.0076 0.11291,-0.0024 0.158901,-0.02891 0.09854,-0.05683 0.189642,-0.114465 0.277368,-0.17345 0.356937,0.03816 0.76061,0.03605 1.213749,-0.01199 0.05505,-0.0057 0.112632,-0.02349 0.166705,-0.05147 1.276599,-0.662099 2.024936,-1.511685 2.327477,-2.357092 0.302541,-0.845407 0.192971,-1.682793 -0.115629,-2.435357 -0.024,-0.05853 -0.04951,-0.116684 -0.0759,-0.174155 0.878569,0.08641 1.80593,-0.0329 2.687842,-0.410358 1.072795,-0.459159 2.066272,-1.286918 2.880794,-2.536889 0.032,-0.04875 0.04695,-0.102332 0.04327,-0.155118 -0.05638,-0.781366 -0.272458,-1.351298 -0.631348,-1.733798 0.775743,-0.485372 1.492955,-1.18757 2.107569,-2.130761 0.03216,-0.04897 0.04712,-0.10281 0.04327,-0.155823 -0.01934,-0.268013 -0.05879,-0.509614 -0.11492,-0.729056 0.584129,-0.562165 1.029934,-1.317015 1.364848,-2.12935 0.343314,-0.83271 0.567577,-1.728064 0.68668,-2.555925 0.428185,-0.233362 0.765843,-0.511644 0.966886,-0.857381 0.04921,-0.08474 0.06528,-0.204558 0.04256,-0.317288 -0.08509,-0.429224 -0.270512,-0.889067 -0.529197,-1.359399 0.516326,0.19885 1.028224,0.364277 1.506014,0.492148 0.966105,0.258568 1.774978,0.382861 2.301939,0.267931 0.09292,-0.0201 0.156941,-0.08187 0.169542,-0.163579 0.07717,-0.492347 -0.135188,-1.188131 -0.531326,-1.970002 -0.396075,-0.781834 -0.988968,-1.63973 -1.735081,-2.392309 -0.240334,-0.242417 -0.498769,-0.472476 -0.770387,-0.686751 0.333075,-0.270156 0.630022,-0.57421 0.885307,-0.902506 1.300266,-1.67214 1.596983,-3.937655 0.73279,-5.70835 -0.06391,-0.125049 -0.23127,-0.168996 -0.400091,-0.105058 0.05751,-0.204399 0.108376,-0.408098 0.149679,-0.608486 0.358045,-0.367449 0.667308,-0.779738 0.930707,-1.214858 0.604605,-0.998773 0.972634,-2.122219 1.127915,-3.136914 0.03375,-0.220542 0.05617,-0.434015 0.07094,-0.641625 0.150281,-0.700645 0.143062,-1.431647 0.02979,-2.074354 -0.115337,-0.654447 -0.313378,-1.205995 -0.649792,-1.582911 0.192169,-0.280063 0.356422,-0.574464 0.4916,-0.877123 0.863819,-1.934053 0.611867,-4.204811 -0.649792,-5.718222 -0.0064,-0.0048 -0.01299,-0.0093 -0.01986,-0.0134 -0.199403,-0.287575 -0.453242,-0.572422 -0.750524,-0.849624 0.08695,-0.05025 0.168336,-0.101714 0.236933,-0.156529 0.0742,-0.05913 0.104191,-0.142688 0.07945,-0.221396 -0.05434,-0.173219 -0.156459,-0.353929 -0.296521,-0.538683 0.329384,-0.184121 0.633686,-0.397011 0.900204,-0.623998 0.563616,-0.480017 0.966466,-0.983327 1.081096,-1.52721 0.02045,-0.09563 -0.0015,-0.214379 -0.05817,-0.314467 -0.341381,-0.603642 -0.946741,-1.202784 -1.686907,-1.750721 -0.740166,-0.547936 -1.613372,-1.023541 -2.465097,-1.262098 -0.02876,-0.0081 -0.05712,-0.01505 -0.08584,-0.02256 0.0065,-0.02353 0.01367,-0.0472 0.01915,-0.07051 0.02726,-0.114162 -0.0056,-0.23434 -0.08725,-0.318697 -0.198313,-0.202914 -0.458701,-0.384614 -0.764712,-0.54785 0.322145,-0.597017 0.591355,-1.203096 0.795925,-1.776103 0.376221,-1.053813 0.564788,-1.964791 0.421372,-2.619383 -0.02519,-0.115174 -0.107662,-0.209394 -0.21849,-0.2496 -0.51912,-0.189499 -1.209984,-0.210766 -1.995487,-0.107877 -0.0069,-0.130714 -0.01553,-0.26015 -0.02625,-0.386386 -0.09469,-1.114943 -0.301026,-2.022576 -0.702996,-2.558745 -0.07032,-0.09397 -0.183736,-0.145553 -0.300777,-0.136786 -0.709681,0.0552 -1.564725,0.480213 -2.450909,1.127427 -0.279525,0.204148 -0.559589,0.433502 -0.834231,0.68111 -0.387174,-0.359262 -0.892989,-0.702468 -1.480477,-1.02096 -0.412597,-0.223679 -0.866334,-0.429428 -1.343566,-0.607781 0.22142,-0.278822 0.427855,-0.558885 0.611485,-0.834113 0.621025,-0.930802 1.024966,-1.771177 1.044918,-2.440997 0.0031,-0.117004 -0.05357,-0.227539 -0.150389,-0.293315 -0.589309,-0.39926 -1.523359,-0.600164 -2.619742,-0.646561 -1.096383,-0.0464 -2.346763,0.08047 -3.514979,0.449138 -0.228893,0.07223 -0.45514,0.154523 -0.67604,0.246074 0.03844,-0.09725 0.06946,-0.193276 0.09151,-0.286969 0.02682,-0.114062 -0.0063,-0.233926 -0.08796,-0.317992 -0.49753,-0.509074 -1.37249,-0.891558 -2.437431,-1.1563359 C 74.946269,9.828235 74.455602,9.7430147 73.948573,9.6898525 74.09344,9.3634104 74.223222,9.0398993 74.332348,8.7267093 74.700523,7.6700578 74.880841,6.7572801 74.732438,6.1038011 74.70682,5.9891632 74.624414,5.8955561 74.513949,5.8556119 73.84344,5.61663 72.88925,5.6549124 71.816176,5.8845203 70.743102,6.1141283 69.56405,6.553591 68.52536,7.2030252 67.708658,7.7136628 66.977568,8.3581714 66.470995,9.1434133 66.039788,8.8094845 65.589562,8.5211544 65.150129,8.2888528 64.316316,7.8480665 63.538065,7.5922396 62.92764,7.6331258 62.84916,7.6416758 62.777378,7.6812858 62.728304,7.7431187 62.070512,7.5621255 61.184637,7.6103563 60.195107,7.822088 59.122033,8.0516959 57.940853,8.4890435 56.902163,9.1384777 56.749925,9.2336636 56.601438,9.3343631 56.455963,9.438843 56.270685,9.2370745 56.081211,9.0472073 55.890587,8.8733665 55.79729,8.7882836 55.70395,8.7072483 55.611091,8.6294079 55.60794,8.4680128 55.592297,8.3164743 55.560725,8.1774497 55.534755,8.0629154 55.452085,7.9695787 55.341526,7.9299657 55.026643,7.8177355 54.647785,7.7689038 54.224962,7.7706169 c -0.109938,-0.03912 -0.217815,-0.069068 -0.322768,-0.08884 -0.09888,-0.018689 -0.200476,0.014261 -0.269565,0.08743 -0.01129,0.012067 -0.02227,0.025458 -0.03334,0.038074 -0.304275,0.032175 -0.622847,0.082674 -0.954826,0.1537081 -1.073075,0.2296082 -2.252126,0.6669558 -3.290816,1.31639 C 48.912262,9.5533517 48.495261,9.8685967 48.125,10.2236 47.68473,10.412139 47.266123,10.640252 46.885713,10.915286 46.584678,10.707732 46.278859,10.522033 45.978415,10.363207 45.695207,10.213491 45.419421,10.08702 45.153406,9.9845771 44.521212,9.4392093 43.900594,9.0617094 43.353708,8.9586816 c -0.03276,-0.00336 -0.06584,-0.00121 -0.09789,0.00635 0.09502,-0.1309325 0.187485,-0.2612138 0.273821,-0.3906159 0.621025,-0.9308022 1.024964,-1.7718815 1.044917,-2.4417019 0.0029,-0.1167565 -0.05379,-0.2269703 -0.150388,-0.2926094 -0.58931,-0.39926 -1.523359,-0.6001636 -2.619742,-0.646561 -1.096382,-0.046397 -2.347473,0.080473 -3.515689,0.4491378 C 37.370403,5.9324824 36.5003,6.3729932 35.812995,7.0063071 35.479559,6.5756723 35.117219,6.1838417 34.750343,5.8492661 34.053462,5.21374 33.363167,4.7737593 32.76195,4.6604964 Z"
         sodipodi:nodetypes="ccsscsscsccsscsccssccsccsscsccsscsccscsscccsscsccscccscccsscscsscccssccscccsscccssscsccsscccsscccssscssccscccsscsccccccscsccsccsscscccsscscsccccccsccssccccssccsccscscsccsscscscsccsscsccsscscsccsscssccscccsccsscsc" />
      <g
         id="text6"
         style="font-weight:bold;font-size:29.8937px;font-family:'Times New Roman';-inkscape-font-specification:'Times New Roman, Bold';letter-spacing:0px;fill:#ffffff;stroke-width:46.0909;stroke-linecap:round;stroke-linejoin:bevel"
         transform="matrix(0.8598601,0,0,1.1629799,10.659288,1.7657855)"
         aria-label="L'essence&#10;de vie">
        <path
           style="-inkscape-font-specification:'LT Perfume, Normal';fill:#6d7a60;fill-opacity:1;stroke-width:61.9404"
           d="m 116.04012,45.172228 q -1.95947,0 -3.04808,-0.667149 -1.08859,-0.704212 -1.08859,-1.667873 0,-1.482553 1.52404,-2.409147 1.56757,-0.963661 4.09312,-0.963661 1.78531,0 3.48351,0.407703 1.69821,0.407702 3.30934,0.963659 1.1757,-1.111914 2.22072,-2.372084 1.04507,-1.297236 1.95947,-2.557405 0.95797,-1.297235 1.78531,-2.52034 0.82734,-1.260171 1.56759,-2.297959 -1.78531,-0.259447 -3.30934,-0.778339 -1.4805,-0.555958 -2.61264,-1.334298 -1.0886,-0.778339 -1.69821,-1.816128 -0.6096,-1.07485 -0.6096,-2.372084 0,-1.742 1.0015,-3.187491 1.0015,-1.482553 2.61265,-2.557403 1.65464,-1.074851 3.70121,-1.667872 2.04657,-0.630085 4.13666,-0.630085 1.52405,0 3.09162,0.407702 0.21772,0.03706 0.13067,0.222383 -0.0437,0.185319 -0.43543,0.07413 -0.65317,-0.185321 -1.30633,-0.222383 -0.65317,-0.07415 -1.34986,-0.07415 -1.95949,0 -3.91896,0.593022 -1.95946,0.555955 -3.52706,1.593744 -1.56755,1.037787 -2.52552,2.446212 -0.95797,1.371363 -0.95797,3.039234 0,1.186043 0.56607,2.22383 0.6096,1.000722 1.65467,1.779063 1.04505,0.741277 2.48199,1.223106 1.43695,0.481831 3.17871,0.667149 0.65315,-0.889531 1.43693,-1.964382 0.82735,-1.111916 1.65468,-2.260894 0.82734,-1.186042 1.65466,-2.297959 0.87089,-1.148975 1.65468,-2.038508 2.43845,-2.816851 4.52855,-3.96583 2.13363,-1.186042 3.96251,-1.186042 1.78529,0 2.65616,0.85247 0.87088,0.852466 0.65316,2.520338 -0.21772,1.890255 -1.52403,3.743447 -1.30633,1.85319 -3.39642,3.37281 -2.04656,1.519616 -4.74627,2.557401 -2.6562,1.000724 -5.57363,1.223107 -2.26429,3.335743 -4.39792,5.930213 -2.13366,2.594468 -4.44148,4.373532 1.26277,0.518892 2.43845,1.037786 1.21924,0.481832 2.35136,0.889534 1.17569,0.4077 2.26429,0.667147 1.0886,0.259447 2.09011,0.259447 1.26276,0 2.35137,-0.370637 1.13215,-0.407702 2.35136,-1.260171 1.26277,-0.889532 2.74326,-2.297959 1.4805,-1.408423 3.48353,-3.446935 l 0.65313,0.18532 q -2.00303,2.03851 -3.57058,3.558127 -1.56757,1.482553 -3.00454,2.446213 -1.43693,0.96366 -2.87388,1.445489 -1.43695,0.48183 -3.17871,0.518894 -1.3934,0.03705 -2.69971,-0.185321 -1.30631,-0.185318 -2.56909,-0.518891 -1.21923,-0.333576 -2.39491,-0.741277 -1.17569,-0.407703 -2.35137,-0.852469 -1.82884,1.111914 -3.8754,1.704937 -2.04656,0.555957 -4.44147,0.555957 z m 26.25693,-23.535532 q -2.48198,3.18749 -4.00601,5.337192 -1.52405,2.149701 -2.74327,3.780511 2.61263,-0.222384 5.05109,-1.186041 2.43845,-1.000725 4.35438,-2.446214 1.95947,-1.44549 3.22225,-3.18749 1.26277,-1.779062 1.5676,-3.558128 0.21768,-1.297234 -0.39193,-2.038509 -0.56604,-0.741276 -1.56757,-0.741276 -1.00149,0 -2.35136,0.889531 -1.34986,0.852468 -3.13518,3.150424 z m -19.63824,20.644553 q -1.52407,-0.555957 -3.13519,-0.96366 -1.56756,-0.407701 -3.22224,-0.407701 -2.09011,0 -3.00453,0.630085 -0.87086,0.630084 -0.87086,1.371362 0,0.667148 1.0015,1.297232 1.04505,0.593023 2.56909,0.593023 1.87239,0 3.52704,-0.667149 1.65467,-0.704215 3.13519,-1.853192 z m 31.0903,-15.159105 q 0,-0.518894 0.43545,-0.889532 0.43545,-0.407703 1.08858,-0.407703 0.60963,0 1.04506,0.407703 0.47897,0.370638 0.47897,0.889532 0,0.59302 -0.39187,1.186042 -0.39192,0.593022 -1.04506,1.111915 -0.60961,0.48183 -1.34986,0.852469 -0.74026,0.333572 -1.43696,0.407702 -0.34835,0.03705 -0.3919,-0.148257 0,-0.18532 0.21774,-0.222382 0.87086,-0.148255 1.82881,-0.630084 1.00152,-0.518896 1.61115,-1.371363 -0.26126,0.111194 -0.56608,0.111194 -0.65313,0 -1.08858,-0.37064 -0.43545,-0.370639 -0.43545,-0.926594 z m 11.66978,8.339361 q -0.30481,0.593021 -1.13214,1.148978 -0.7838,0.555957 -1.91594,1.037788 -1.08859,0.481829 -2.39491,0.889532 -1.30631,0.407702 -2.61263,0.741276 -0.34836,1.000724 -0.34836,1.890256 0.0437,0.852468 0.34836,1.519616 0.34836,0.630084 0.91443,1.000723 0.60961,0.370639 1.39337,0.370639 0.82736,0 1.82887,-0.29651 1.0015,-0.29651 2.30782,-1.074852 1.30632,-0.778341 3.00453,-2.112639 1.69821,-1.371361 3.91895,-3.483998 h 0.78376 q -2.17716,2.22383 -4.00601,3.706382 -1.82883,1.482553 -3.39641,2.372085 -1.52405,0.889532 -2.78681,1.297234 -1.26277,0.37064 -2.30784,0.37064 -1.61111,0 -2.74325,-0.667152 -1.13216,-0.70421 -1.65467,-1.816126 -0.479,-1.111916 -0.26127,-2.520341 0.26127,-1.408425 1.43695,-2.853914 1.65467,-2.038511 3.57059,-3.150425 1.95949,-1.148981 3.83186,-1.148981 0.60962,0 1.13213,0.18532 0.56607,0.148256 0.91444,0.518895 0.3919,0.333573 0.43545,0.852467 0.0872,0.518895 -0.26127,1.223107 z m -7.88144,3.261618 q 2.83035,-0.741277 4.52855,-1.779066 1.69821,-1.037786 2.0901,-2.223828 0.26127,-0.778341 -0.0436,-1.148979 -0.30482,-0.407703 -0.78379,-0.407703 -0.78382,0 -1.69824,0.630084 -0.87086,0.630087 -1.69819,1.519619 -0.78381,0.889531 -1.43696,1.85319 -0.65315,0.926597 -0.95797,1.556683 z m 18.4626,-6.226724 q 0.47898,-0.370639 0.95795,-0.518893 0.47898,-0.148258 0.87089,-0.148258 0.74024,0 0.87087,0.407703 0.0872,0.185321 -0.17417,0.407703 -0.21771,0.185319 -0.74024,0.185319 -0.17418,0 -0.34837,0 -0.17416,0 -0.39189,-0.07415 -0.47897,-0.111193 -0.74022,0.444766 -0.26128,0.555958 -0.34836,1.445492 -0.0872,0.852466 -0.0872,1.816126 0,0.963659 0.0437,1.704934 0.13066,1.927321 -1.08858,3.66932 1.08858,-0.815403 2.39492,-1.927318 1.34985,-1.111914 2.96099,-2.668595 h 0.78377 q -2.69973,2.742722 -4.83336,4.373531 -2.13366,1.593744 -3.87542,2.409149 -0.82734,0.444766 -1.82883,0.704213 -1.00152,0.259446 -2.13364,0.259446 -2.00302,0 -2.91745,-0.778341 -0.91441,-0.815403 -1.00151,-1.779063 -0.0872,-0.963659 0.52253,-1.741999 0.60961,-0.815405 1.61112,-0.815405 0.56607,0 0.91442,0.333575 0.3919,0.333575 0.34836,0.815404 -0.0436,0.518893 -0.47899,0.852469 -0.3919,0.296508 -0.87088,0.296508 -0.39188,0 -0.6967,-0.148253 -0.30481,-0.185321 -0.52253,-0.444766 -0.26126,0.518892 -0.17417,1.037787 0.0872,0.518893 0.43545,0.963659 0.39188,0.407702 1.00149,0.66715 0.60962,0.259445 1.39341,0.259445 1.04506,0 2.00303,-0.555957 1.00151,-0.555957 1.78527,-1.445489 0.82734,-0.889532 1.39342,-2.038509 0.56608,-1.14898 0.74024,-2.335023 0.21772,-1.519616 0.7838,-2.705659 0.56607,-1.186042 1.13214,-1.816127 -1.17568,0.852467 -2.39492,1.890254 -1.21923,1.037787 -2.04657,1.779064 h -0.82732 q 0.52252,-0.518896 1.17568,-1.148978 0.6967,-0.630086 1.43695,-1.260171 0.78379,-0.630084 1.52404,-1.260169 0.78379,-0.630086 1.43694,-1.111914 z m 9.66673,0 q 0.479,-0.370639 0.95797,-0.518893 0.47897,-0.148258 0.87088,-0.148258 0.74024,0 0.87086,0.407703 0.0872,0.185321 -0.17414,0.407703 -0.21775,0.185319 -0.74026,0.185319 -0.17418,0 -0.34837,0 -0.17416,0 -0.39188,-0.07415 -0.479,-0.111193 -0.74025,0.444766 -0.26126,0.555958 -0.34835,1.445492 -0.0872,0.852466 -0.0872,1.816126 0,0.963659 0.0436,1.704934 0.13067,1.927321 -1.08858,3.66932 1.08858,-0.815403 2.39491,-1.927318 1.34985,-1.111914 2.96098,-2.668595 h 0.78379 q -2.69971,2.742722 -4.83335,4.373531 -2.13366,1.593744 -3.8754,2.409149 -0.82734,0.444766 -1.82886,0.704213 -1.0015,0.259446 -2.13366,0.259446 -2.003,0 -2.91742,-0.778341 -0.91444,-0.815403 -1.00151,-1.779063 -0.0872,-0.963659 0.52254,-1.741999 0.60959,-0.815405 1.6111,-0.815405 0.56608,0 0.91443,0.333575 0.3919,0.333575 0.34835,0.815404 -0.0437,0.518893 -0.47898,0.852469 -0.39189,0.296508 -0.87088,0.296508 -0.39189,0 -0.69671,-0.148253 -0.30478,-0.185321 -0.52249,-0.444766 -0.26128,0.518892 -0.17421,1.037787 0.0872,0.518893 0.43545,0.963659 0.39188,0.407702 1.00149,0.66715 0.60963,0.259445 1.39342,0.259445 1.04506,0 2.00299,-0.555957 1.00154,-0.555957 1.78531,-1.445489 0.82735,-0.889532 1.39341,-2.038509 0.56607,-1.14898 0.74026,-2.335023 0.21771,-1.519616 0.78378,-2.705659 0.56608,-1.186042 1.13212,-1.816127 -1.17566,0.852467 -2.39488,1.890254 -1.21925,1.037787 -2.04658,1.779064 h -0.82733 q 0.52255,-0.518896 1.17568,-1.148978 0.69672,-0.630086 1.43695,-1.260171 0.78379,-0.630084 1.52404,-1.260169 0.78378,-0.630086 1.43695,-1.111914 z m 13.58568,2.965106 q -0.3048,0.593021 -1.13213,1.148978 -0.78377,0.555957 -1.91593,1.037788 -1.0886,0.481829 -2.3949,0.889532 -1.30633,0.407702 -2.61265,0.741276 -0.34832,1.000724 -0.34832,1.890256 0.0436,0.852468 0.34832,1.519616 0.34835,0.630084 0.91445,1.000723 0.60959,0.370639 1.39338,0.370639 0.82734,0 1.82885,-0.29651 1.00151,-0.29651 2.30784,-1.074852 1.30629,-0.778341 3.0045,-2.112639 1.69821,-1.371361 3.91893,-3.483998 h 0.7838 q -2.17717,2.22383 -4.00602,3.706382 -1.82884,1.482553 -3.39643,2.372085 -1.52403,0.889532 -2.7868,1.297234 -1.26277,0.37064 -2.30781,0.37064 -1.61114,0 -2.74327,-0.667152 -1.13215,-0.70421 -1.65468,-1.816126 -0.47896,-1.111916 -0.26124,-2.520341 0.26124,-1.408425 1.43693,-2.853914 1.65467,-2.038511 3.5706,-3.150425 1.95947,-1.148981 3.83185,-1.148981 0.60964,0 1.13214,0.18532 0.56607,0.148256 0.91442,0.518895 0.39189,0.333573 0.43545,0.852467 0.0872,0.518895 -0.26128,1.223107 z m -7.88143,3.261618 q 2.83035,-0.741277 4.52857,-1.779066 1.69821,-1.037786 2.09011,-2.223828 0.26127,-0.778341 -0.0436,-1.148979 -0.30479,-0.407703 -0.78379,-0.407703 -0.78379,0 -1.69822,0.630084 -0.87087,0.630087 -1.69819,1.519619 -0.7838,0.889531 -1.43695,1.85319 -0.65317,0.926597 -0.95797,1.556683 z m 12.88901,-1.445491 q 2.35137,-2.260892 3.83185,-3.335744 1.48051,-1.111915 2.65617,-1.111915 1.26277,0 1.61112,1.148979 0.34835,1.148979 -0.82732,3.484 1.13212,-1.186043 2.00301,-2.03851 0.91441,-0.889533 1.65465,-1.44549 0.78379,-0.593021 1.4805,-0.852467 0.6967,-0.296512 1.43695,-0.296512 0.7838,0 1.43695,0.370637 0.65318,0.333578 0.95798,1.037788 0.30478,0.667149 0.0872,1.704936 -0.21772,1.000723 -1.17568,2.335021 l -2.35136,3.261618 q -0.87088,1.260168 -0.60962,2.001445 0.26128,0.741278 0.95797,0.741278 1.00153,0 2.30784,-1.037786 1.3063,-1.074853 3.57058,-3.150427 0.60961,-0.59302 1.13215,-1.074851 0.56608,-0.518894 0.95795,-0.926595 0.47901,-0.444766 0.87089,-0.852469 h 0.82732 q -1.95946,1.927321 -3.43996,3.372809 -1.43694,1.445488 -2.61263,2.372086 -1.13214,0.926593 -2.04654,1.408426 -0.91443,0.444766 -1.78532,0.444766 -0.78379,0 -1.43693,-0.407703 -0.60962,-0.444766 -0.87088,-1.223108 -0.26126,-0.77834 0,-1.890255 0.26126,-1.111914 1.26277,-2.483275 l 1.95947,-2.70566 q 0.91442,-1.26017 0.65317,-2.001448 -0.26127,-0.741275 -0.87089,-0.741275 -0.69671,0 -1.74175,0.704213 -1.04506,0.704212 -2.22072,1.816127 -1.13218,1.111914 -2.35139,2.483277 -1.21923,1.334298 -2.26429,2.594468 -1.04504,1.260169 -1.87237,2.335019 -0.78379,1.037789 -1.13214,1.51962 h -2.74327 l 6.22677,-8.710001 q 0.87088,-1.26017 1.04504,-2.001448 0.17419,-0.741275 -0.43542,-0.741275 -0.69671,0 -1.95947,1.000724 -1.26279,1.000722 -3.35288,2.890977 z m 29.34856,-4.447659 q 1.69818,0 2.43845,0.667149 0.78379,0.667148 0.82731,1.445489 0.0872,0.77834 -0.47896,1.445489 -0.52251,0.66715 -1.43694,0.66715 -0.60963,0 -0.91442,-0.333574 -0.26125,-0.333576 -0.21773,-0.815405 0.0437,-0.518894 0.43545,-0.815404 0.43545,-0.333574 0.91442,-0.333574 0.39188,0 0.56608,0.148254 0.21771,0.111193 0.43541,0.370638 0.21773,-0.852467 -0.47896,-1.408426 -0.65316,-0.555957 -1.65467,-0.555957 -1.39343,0 -2.78681,1.037786 -1.39339,1.000725 -2.74329,2.89098 -0.95795,1.371362 -1.30631,2.631533 -0.30478,1.26017 -0.0871,2.223829 0.26128,0.963659 0.91442,1.556682 0.6967,0.555955 1.65466,0.555955 0.82734,0 1.82884,-0.296511 1.00152,-0.296509 2.30781,-1.07485 1.30634,-0.778341 3.00454,-2.112639 1.69821,-1.371362 3.91897,-3.483999 h 0.78378 q -2.17719,2.22383 -4.00603,3.706383 -1.82885,1.482553 -3.39643,2.372084 -1.52402,0.889532 -2.7868,1.297235 -1.26278,0.37064 -2.30782,0.37064 -1.61113,0 -2.74326,-0.667151 -1.13214,-0.704212 -1.65469,-1.816126 -0.47899,-1.111914 -0.26126,-2.52034 0.26126,-1.408427 1.43695,-2.853917 1.65466,-2.038509 3.61414,-3.150424 2.00301,-1.148979 4.18023,-1.148979 z m 16.59018,2.631532 q -0.30479,0.593021 -1.13213,1.148978 -0.7838,0.555957 -1.91593,1.037788 -1.08859,0.481829 -2.39492,0.889532 -1.3063,0.407702 -2.61263,0.741276 -0.34835,1.000724 -0.34835,1.890256 0.0437,0.852468 0.34835,1.519616 0.34835,0.630084 0.91441,1.000723 0.60963,0.370639 1.39342,0.370639 0.82732,0 1.82884,-0.29651 1.00151,-0.29651 2.3078,-1.074852 1.30635,-0.778341 3.00455,-2.112639 1.6982,-1.371361 3.91894,-3.483998 h 0.78379 q -2.17719,2.22383 -4.00603,3.706382 -1.82885,1.482553 -3.39642,2.372085 -1.52404,0.889532 -2.78681,1.297234 -1.26277,0.37064 -2.30783,0.37064 -1.61113,0 -2.74327,-0.667152 -1.13212,-0.70421 -1.65466,-1.816126 -0.47897,-1.111916 -0.26125,-2.520341 0.26125,-1.408425 1.43693,-2.853914 1.65467,-2.038511 3.57061,-3.150425 1.95947,-1.148981 3.83186,-1.148981 0.60959,0 1.13214,0.18532 0.56608,0.148256 0.91442,0.518895 0.39189,0.333573 0.43543,0.852467 0.0872,0.518895 -0.26126,1.223107 z m -7.88144,3.261618 q 2.83036,-0.741277 4.52858,-1.779066 1.6982,-1.037786 2.09008,-2.223828 0.26126,-0.778341 -0.0437,-1.148979 -0.30481,-0.407703 -0.78379,-0.407703 -0.78379,0 -1.6982,0.630084 -0.87085,0.630087 -1.6982,1.519619 -0.78379,0.889531 -1.43697,1.85319 -0.65316,0.926597 -0.95795,1.556683 z"
           id="path1" />
        <path
           style="-inkscape-font-specification:'LT Perfume, Normal';fill:#6d7a60;fill-opacity:1;stroke-width:61.9404"
           d="m 122.30902,57.507441 q 1.65466,0 2.39491,0.704213 0.78379,0.704213 0.74024,1.704935 l 8.79586,-12.193998 h 2.74327 L 123.74598,66.21744 q -0.87089,1.260171 -0.60962,2.001447 0.26125,0.741277 0.95797,0.741277 1.00149,0 2.30781,-1.037789 1.30632,-1.074849 3.57059,-3.150424 0.60964,-0.593021 1.13214,-1.07485 0.56608,-0.518895 0.95797,-0.926596 0.47899,-0.444766 0.87089,-0.852468 h 0.82732 q -1.95946,1.927319 -3.43996,3.372809 -1.43697,1.445488 -2.61263,2.372085 -1.13213,0.926595 -2.04657,1.408424 -0.91442,0.444767 -1.7853,0.444767 -1.17569,0 -1.91593,-0.889532 -0.69669,-0.889532 -0.43543,-2.297958 -1.13213,1.408426 -2.43847,2.372084 -1.3063,0.963661 -2.96095,0.963661 -1.30635,0 -2.17722,-0.667149 -0.82733,-0.704213 -1.08857,-1.816127 -0.26127,-1.111916 0.0871,-2.520341 0.3919,-1.408426 1.56757,-2.853916 1.65469,-2.038509 3.61416,-3.150425 2.00301,-1.148978 4.18019,-1.148978 z m 0.43542,0.48183 q -1.39341,0 -2.78679,1.037788 -1.39341,1.000723 -2.74327,2.890978 -0.95797,1.371362 -1.43695,2.668595 -0.43544,1.260169 -0.43544,2.260894 0,0.963659 0.34835,1.556681 0.3919,0.593021 1.0886,0.593021 0.74025,0 1.56759,-0.555957 0.82733,-0.555958 1.69819,-1.482554 0.87089,-0.926595 1.74175,-2.112638 0.91443,-1.186043 1.82886,-2.409149 0.74025,-1.000723 0.91442,-1.816127 0.21772,-0.815404 0.0437,-1.371362 -0.13064,-0.593022 -0.65315,-0.926596 -0.47897,-0.333574 -1.17568,-0.333574 z m 19.7254,2.149703 q -0.30481,0.593019 -1.13215,1.148978 -0.78376,0.555958 -1.91592,1.037787 -1.08857,0.481831 -2.3949,0.889533 -1.30631,0.4077 -2.61264,0.741275 -0.34836,1.000722 -0.34836,1.890254 0.0436,0.852468 0.34836,1.519618 0.34835,0.630086 0.91441,1.000723 0.60964,0.370639 1.39341,0.370639 0.82733,0 1.82886,-0.29651 1.00149,-0.296511 2.3078,-1.074852 1.30632,-0.778341 3.00455,-2.112639 1.69819,-1.371361 3.91892,-3.483999 h 0.7838 q -2.17721,2.22383 -4.00604,3.706382 -1.82885,1.482554 -3.3964,2.372087 -1.52406,0.889531 -2.78683,1.297233 -1.26278,0.370639 -2.30784,0.370639 -1.61109,0 -2.74325,-0.667149 -1.13212,-0.704213 -1.65467,-1.816127 -0.47896,-1.111914 -0.26124,-2.520343 0.26124,-1.408423 1.43693,-2.853914 1.65467,-2.03851 3.5706,-3.150425 1.95947,-1.148978 3.83187,-1.148978 0.6096,0 1.13213,0.185319 0.56606,0.148255 0.91443,0.518892 0.39189,0.333575 0.43542,0.85247 0.0872,0.518893 -0.26125,1.223107 z m -7.88145,3.261615 q 2.83037,-0.741275 4.52856,-1.779063 1.69822,-1.037787 2.09011,-2.223829 0.26127,-0.778342 -0.0436,-1.148979 -0.3048,-0.407702 -0.7838,-0.407702 -0.7838,0 -1.6982,0.630085 -0.87089,0.630085 -1.69821,1.519616 -0.78379,0.889533 -1.43694,1.853193 -0.65316,0.926595 -0.95797,1.556679 z m 38.88469,-1.482552 q -1.13216,0.963659 -2.00302,1.482552 -0.8709,0.518895 -1.87238,0.518895 -0.74027,0 -1.39342,-0.296512 -0.65313,-0.333573 -0.95795,-0.852467 -3.35289,3.558127 -5.53009,5.15187 -2.17717,1.593747 -3.48351,1.593747 -0.91441,0 -1.52402,-0.481832 -0.60962,-0.481828 -0.82734,-1.297232 -0.17418,-0.852468 0.13064,-1.927319 0.30482,-1.074852 1.17569,-2.297958 l 4.39793,-6.00434 h 2.74326 l -6.22677,8.709999 q -0.87088,1.260171 -0.60962,2.001447 0.26127,0.741277 0.95798,0.741277 0.74026,0 1.87238,-0.741277 1.13215,-0.741276 2.35136,-1.816127 1.26279,-1.074851 2.39491,-2.260894 1.17569,-1.223106 1.95949,-2.112638 -0.3919,-0.889532 -0.43545,-1.704936 0,-0.815404 0.21772,-1.445489 0.26127,-0.630085 0.69671,-1.000723 0.43544,-0.407703 0.95797,-0.407703 h 0.0436 q 0.56607,0 0.95794,0.296511 0.43546,0.259446 0.47899,0.852467 0.0436,0.593023 -0.43544,1.519619 -0.43542,0.88953 -1.56758,2.112636 0.34836,0.630086 0.78379,0.889534 0.43544,0.222382 0.95798,0.222382 0.74022,0 1.3934,-0.407702 0.69671,-0.407703 1.43694,-1.037787 z m 4.31086,-8.487617 q 0,-0.518894 0.43544,-0.889533 0.43544,-0.407702 1.08861,-0.407702 0.60959,0 1.04505,0.407702 0.47896,0.370639 0.47896,0.889533 0,0.555956 -0.47896,0.926596 -0.43546,0.370637 -1.04505,0.370637 -0.65317,0 -1.08861,-0.370637 -0.43544,-0.37064 -0.43544,-0.926596 z m -5.39942,16.085702 q -0.91442,0 -1.52404,-0.481832 -0.60962,-0.481828 -0.82734,-1.297232 -0.17418,-0.852468 0.13066,-1.927319 0.3048,-1.074852 1.17569,-2.297958 l 4.39793,-6.00434 h 2.74326 l -6.22677,8.709999 q -0.87089,1.260171 -0.60962,2.001447 0.26128,0.741277 0.958,0.741277 1.00149,0 2.30779,-1.037789 1.30633,-1.074849 3.5706,-3.150424 0.60964,-0.593021 1.13213,-1.07485 0.56611,-0.518895 0.95798,-0.926596 0.47899,-0.444766 0.87088,-0.852468 h 0.82735 q -1.95951,1.927319 -3.44,3.372809 -1.43692,1.445488 -2.61261,2.372085 -1.13211,0.926595 -2.04658,1.408424 -0.91441,0.444767 -1.78526,0.444767 z m 18.54967,-9.377148 q -0.30479,0.593019 -1.13214,1.148978 -0.7838,0.555958 -1.91594,1.037787 -1.08858,0.481831 -2.39491,0.889533 -1.30631,0.4077 -2.61262,0.741275 -0.34837,1.000722 -0.34837,1.890254 0.0437,0.852468 0.34837,1.519618 0.34834,0.630086 0.91443,1.000723 0.6096,0.370639 1.39338,0.370639 0.82733,0 1.82883,-0.29651 1.00152,-0.296511 2.30784,-1.074852 1.30634,-0.778341 3.00453,-2.112639 1.69822,-1.371361 3.91894,-3.483999 h 0.78379 q -2.17717,2.22383 -4.00602,3.706382 -1.82883,1.482554 -3.39643,2.372087 -1.52405,0.889531 -2.78678,1.297233 -1.26278,0.370639 -2.30784,0.370639 -1.61113,0 -2.74328,-0.667149 -1.13214,-0.704213 -1.65465,-1.816127 -0.47899,-1.111914 -0.26129,-2.520343 0.26129,-1.408423 1.43697,-2.853914 1.65467,-2.03851 3.57059,-3.150425 1.9595,-1.148978 3.83185,-1.148978 0.60962,0 1.13217,0.185319 0.56607,0.148255 0.9144,0.518892 0.3919,0.333575 0.43546,0.85247 0.0872,0.518893 -0.26128,1.223107 z m -7.88144,3.261615 q 2.83035,-0.741275 4.52857,-1.779063 1.69819,-1.037787 2.0901,-2.223829 0.26126,-0.778342 -0.0437,-1.148979 -0.3048,-0.407702 -0.78379,-0.407702 -0.78378,0 -1.69819,0.630085 -0.87088,0.630085 -1.69822,1.519616 -0.78379,0.889533 -1.43696,1.853193 -0.65313,0.926595 -0.95796,1.556679 z"
           id="path2" />
      </g>
    </g>
  </g>
</svg>
